<?xml version="1.0" encoding="utf-8"?>
<!-- Generator: Adobe Illustrator 16.0.0, SVG Export Plug-In . SVG Version: 6.00 Build 0)  -->
<!DOCTYPE svg PUBLIC "-//W3C//DTD SVG 1.1//EN" "http://www.w3.org/Graphics/SVG/1.1/DTD/svg11.dtd">
<svg version="1.1" id="Layer_1" xmlns="http://www.w3.org/2000/svg" xmlns:xlink="http://www.w3.org/1999/xlink" x="0px" y="0px"
	 width="851.001px" height="852.207px" viewBox="575.948 74.852 851.001 852.207"
	 enable-background="new 575.948 74.852 851.001 852.207" xml:space="preserve">
<g opacity="0.2">
	<g id="XMLID_1_">
		<g>
			<path fill="#FFFFFF" d="M1025.368,367.158v0.01c24.93,0.09,49.85,0.23,74.76,0.43c8.55,0.07,17.11,0.15,25.67,0.23
				c99.67,0.97,199.22,2.93,299.05,6.51c0.352,10.49,0.66,20.98,0.921,31.46c0.26,10.49,0.479,20.97,0.649,31.451
				c0.01,0.18,0.021,0.35,0.01,0.52c0.351,21.041,0.521,42.07,0.521,63.121c0,5.25-0.011,10.5-0.03,15.75c0,0.08,0,0.16,0,0.238
				c-0.03,5.262-0.061,10.521-0.101,15.791c-0.01,0.07-0.01,0.141,0,0.209c-0.05,5.271-0.1,10.551-0.17,15.83
				c0,0.063,0,0.121,0,0.182c-0.34,26.689-0.949,53.43-1.84,80.25c-66.851,1.6-133.271,3.5-199.7,4.689
				c-66.29,1.17-132.601,1.619-199.351,2.391c0,14,0,28.061,0,42.979h0.011v0.01c132.351-0.158,264.609-3.18,397.51-9.27
				c-0.609,13.301-1,26.061-1.819,38.801c-2.109,33.08-4.05,66.18-6.729,99.219c-2.529,31.371-5.931,62.66-8.859,94
				c-0.04,0.381-0.091,0.721-0.16,1.041c-0.029,0.109-0.061,0.209-0.079,0.311c-0.12,0.391-0.271,0.729-0.45,1.02v0.012
				c-0.13,0.189-0.271,0.359-0.431,0.51c-0.649,0.6-1.59,0.898-2.91,1.02c-37.47,3.271-74.909,6.932-112.38,10.031
				c-0.01,0-0.01,0-0.01,0c-8.649,0.709-17.301,1.389-25.96,2.029c-100.431,7.42-201.04,10.41-301.711,8.609
				c-69.109-1.24-138.229-4.02-207.26-7.721c-48.87-2.619-97.59-7.93-146.38-12.09c-0.561-0.049-1.091-0.09-1.591-0.129
				c-0.05,0-0.1-0.012-0.149-0.021c-0.72-0.07-1.37-0.131-1.97-0.201c-0.28-0.027-0.54-0.059-0.79-0.1
				c-0.49-0.08-0.939-0.15-1.341-0.24c-0.119-0.029-0.239-0.049-0.35-0.09c-0.171-0.039-0.341-0.08-0.49-0.129
				c-0.069-0.021-0.141-0.041-0.199-0.07c-0.08-0.02-0.15-0.051-0.221-0.08c-0.58-0.221-1.04-0.5-1.431-0.859
				c-0.17-0.16-0.319-0.34-0.46-0.529c-0.141-0.201-0.271-0.42-0.391-0.66c-0.109-0.24-0.209-0.5-0.3-0.779
				c-0.42-1.262-0.649-3-0.899-5.432c0-0.049-0.01-0.109-0.021-0.17c-0.021-0.24-0.04-0.5-0.069-0.76
				c-2.961-29.66-6.11-59.32-8.351-89.039c-2.95-39.031-5.17-78.121-7.561-117.191c-0.261-4.369-0.2-8.76-0.13-13.34
				c0.039-2.189,0.069-4.42,0.069-6.709c1.279,0,3.04-0.07,4.8,0.01c7.58,0.352,15.16,0.699,22.74,1.021
				c8.6,0.379,17.21,0.738,25.819,1.09c15.28,0.609,30.569,1.189,45.86,1.709c0.55,0.021,1.09,0.041,1.64,0.061
				c95.03,3.262,190.11,4.859,285.221,5.23c4.54,0.01,5.601-1.361,5.511-5.67c-0.271-12.311-0.091-24.621-0.091-37.74h-0.01
				c0-0.01,0-0.01,0-0.02c-131.82-0.49-263.141-2.441-394.91-7.182c-2.83-84.91-2.84-169.42-0.021-254.831
				c66-1.59,131.59-3.49,197.181-4.66c65.619-1.149,131.25-1.569,197.31-2.319v-0.011c0-14.54,0-28.92,0-44.189v-0.01
				c-131.09,0.22-262.06,3.229-393.67,9.26c0-2.01-0.09-3.74,0.021-5.48c2.94-46.55,5.58-93.11,8.99-139.63
				c1.311-17.95,3.109-35.86,4.899-53.78c1.09-10.75,2.17-21.5,3.149-32.26c0.141-1.44,0.41-2.49,0.96-3.25
				c0.721-0.96,1.88-1.43,3.79-1.59c53.101-4.48,106.13-9.95,159.301-13.48c101.96-6.77,204.079-8.95,306.26-6.87
				c45.8,0.94,91.62,2.3,137.37,4.69c5.3,0.28,10.6,0.57,15.909,0.89c0.631,0.04,1.261,0.07,1.891,0.11
				c38.95,2.33,77.859,5.55,116.771,8.56c21.08,1.64,42.101,4.13,63.15,6.13c0.829,0.08,1.539,0.19,2.159,0.4
				c0.479,0.16,0.899,0.39,1.25,0.71s0.62,0.75,0.819,1.31c0.15,0.42,0.261,0.92,0.32,1.5c8.16,75.87,14.061,151.91,17.18,228.16
				c0.011,0.189,0.021,0.38,0.021,0.569c0.02,0.94-0.011,1.94-0.011,3.311c-33.141-1.521-66.261-2.851-99.37-3.99
				c-49.67-1.71-99.319-2.99-149.029-3.87c-16.57-0.29-33.141-0.54-49.721-0.74c-8.359-0.1-16.72-0.189-25.08-0.27
				c-6.209-0.06-12.409-0.11-18.619-0.16c-18.62-0.14-37.25-0.229-55.9-0.26c0,7.72,0,14.99,0,22.26c0,7.141,0,14.29,0,22.24
				L1025.368,367.158L1025.368,367.158z M665.547,805.938c0.24,0.82,0.5,1.631,0.78,2.439c0.278,0.811,0.58,1.609,0.899,2.4
				c0.959,2.379,2.079,4.699,3.369,6.939c0.642,1.119,1.32,2.221,2.04,3.299c0.96,1.432,1.98,2.83,3.07,4.182
				c1.01,1.27,2.09,2.51,3.21,3.689c0.38,0.398,0.75,0.779,1.14,1.17c9.54,9.561,22.432,16.039,36.511,17.039
				c27.819,1.971,49.41-18.529,48.801-46.34c-0.58-26.689-21.53-50.439-48.11-54.57c-27.75-4.299-50.84,13.541-53.52,41.33
				C663.137,793.788,663.807,800.008,665.547,805.938z M763.467,195.948c0.26-6.021-0.58-11.75-2.359-17.01
				c-0.211-0.62-0.431-1.23-0.67-1.83c-2.12-5.45-5.279-10.34-9.279-14.44c-0.221-0.23-0.44-0.46-0.682-0.68
				c-0.22-0.23-0.449-0.46-0.688-0.67c-0.7-0.66-1.42-1.29-2.16-1.9c0,0,0,0-0.01,0c-0.5-0.42-1-0.81-1.511-1.19
				c-0.261-0.19-0.529-0.38-0.79-0.57c-1.05-0.76-2.141-1.46-3.261-2.12c-0.84-0.5-1.71-0.97-2.59-1.41
				c-0.6-0.29-1.189-0.58-1.8-0.85c-1.21-0.55-2.46-1.04-3.729-1.48c-0.319-0.11-0.649-0.22-0.971-0.32
				c-0.649-0.21-1.3-0.41-1.96-0.59c-1.649-0.45-3.36-0.82-5.11-1.11c-17.858-2.91-36.188,4.54-48.629,17.46
				c-0.591,0.62-1.171,1.24-1.729,1.88c-7.32,8.29-12.29,18.58-13.392,29.71c-2.81,28.44,16.36,51.2,43.512,51.64
				C736.078,250.958,762.167,226.348,763.467,195.948z M757.896,498.569c0-1.66,0.062-3.33-0.01-4.99
				c-1.55-34.17-36.01-58.09-68.22-47.352c-25.83,8.611-41.17,38.131-34.24,65.861c7.04,28.129,33.07,45.619,60,40.299
				C740.167,547.508,757.837,525.178,757.896,498.569z"/>
			<path d="M1424.857,374.338c0.351,10.49,0.649,20.98,0.91,31.46c-0.261-10.479-0.569-20.97-0.921-31.46H1424.857z"/>
			<path d="M1414.748,807.967c-2.54,31.371-5.939,62.66-8.87,94c-0.04,0.371-0.09,0.721-0.17,1.029
				c0.069-0.318,0.12-0.658,0.16-1.039c2.93-31.34,6.33-62.631,8.858-94c2.682-33.041,4.62-66.141,6.73-99.221
				c0.819-12.74,1.21-25.5,1.819-38.799h0.011c-0.61,13.299-1,26.068-1.82,38.809
				C1419.357,741.829,1417.417,774.928,1414.748,807.967z"/>
			<path d="M1405.567,98.408c0.159,0.42,0.271,0.92,0.329,1.51c8.16,75.87,14.062,151.91,17.182,228.16
				c0.01,0.189,0.01,0.37,0.01,0.56c0-0.189-0.01-0.38-0.021-0.569c-3.119-76.25-9.021-152.291-17.181-228.16
				C1405.828,99.328,1405.717,98.828,1405.567,98.408z"/>
			<path d="M1405.627,903.307c-0.11,0.391-0.26,0.73-0.45,1.021C1405.357,904.038,1405.507,903.698,1405.627,903.307z"/>
			<path d="M1404.748,904.848c-0.63,0.619-1.58,0.92-2.9,1.029c-37.47,3.271-74.91,6.939-112.39,10.021
				c37.47-3.102,74.91-6.762,112.38-10.031C1403.158,905.749,1404.097,905.448,1404.748,904.848z"/>
			<path d="M1225.107,633.829c66.431-1.189,132.851-3.09,199.699-4.689c0.892-26.82,1.5-53.561,1.84-80.25
				c-0.329,26.689-0.938,53.43-1.829,80.26c-66.851,1.6-133.271,3.5-199.699,4.689c-66.29,1.17-132.601,1.619-199.351,2.4
				c0,13.988,0,28.039,0,42.959h-0.011c0-14.92,0-28.979,0-42.979C1092.507,635.448,1158.817,634.999,1225.107,633.829z"/>
			<path d="M1025.368,322.668c0,7.72,0,14.99,0,22.26c0,7.15,0,14.28,0,22.23h-0.011c0-7.95,0-15.101,0-22.24
				c0-7.27,0-14.54,0-22.26c18.649,0.03,37.279,0.12,55.899,0.26C1062.637,322.778,1044.007,322.698,1025.368,322.668z"/>
			<path d="M972.988,635.909c-131.82-0.5-263.142-2.451-394.91-7.189v-0.012c131.77,4.74,263.09,6.691,394.91,7.182
				C972.988,635.899,972.988,635.899,972.988,635.909z"/>
			<path d="M972.547,322.698c-131.08,0.22-262.06,3.229-393.67,9.26v-0.01c131.61-6.03,262.58-9.04,393.67-9.261V322.698z"/>
			<path d="M675.708,825.198c1.021,1.271,2.09,2.51,3.21,3.689C677.797,827.708,676.717,826.467,675.708,825.198z"/>
			<path d="M754.527,918.829c-48.869-2.621-97.59-7.93-146.381-12.09c-0.56-0.051-1.1-0.102-1.6-0.141
				c0.5,0.039,1.03,0.08,1.59,0.129c48.79,4.16,97.51,9.471,146.381,12.092c69.029,3.699,138.149,6.479,207.26,7.719
				c100.671,1.801,201.279-1.189,301.711-8.609c8.659-0.641,17.31-1.318,25.96-2.029c-8.65,0.721-17.302,1.4-25.95,2.039
				c-100.431,7.422-201.04,10.41-301.71,8.611C892.677,925.307,823.557,922.528,754.527,918.829z"/>
			<path d="M602.297,906.038c0.4,0.09,0.85,0.16,1.34,0.24C603.146,906.208,602.698,906.127,602.297,906.038z"/>
		</g>
	</g>
</g>
</svg>
