<?xml version="1.0" encoding="utf-8"?>
<!-- Generator: Adobe Illustrator 16.0.0, SVG Export Plug-In . SVG Version: 6.00 Build 0)  -->
<!DOCTYPE svg PUBLIC "-//W3C//DTD SVG 1.1//EN" "http://www.w3.org/Graphics/SVG/1.1/DTD/svg11.dtd">
<svg version="1.1" id="Layer_1" xmlns="http://www.w3.org/2000/svg" xmlns:xlink="http://www.w3.org/1999/xlink" x="0px" y="0px"
	 width="851.999px" height="831.407px" viewBox="574.927 84.847 851.999 831.407"
	 enable-background="new 574.927 84.847 851.999 831.407" xml:space="preserve">
<g opacity="0.2">
	<g id="XMLID_1_">
		<g>
			<path d="M1406.79,118.276c15.27,143.65,21.871,287.73,19.75,432.131c-0.063,4.33-0.141,8.66-0.23,12.99
				c0.08-4.33,0.16-8.66,0.223-12.99c2.129-144.401-4.48-288.491-19.75-432.131c-0.441-4.1-0.711-6.81-1.361-8.64
				C1406.081,111.466,1406.36,114.176,1406.79,118.276z"/>
			<path d="M1426.307,563.397c-0.25,12.986-0.6,25.979-1.01,38.959C1425.708,589.375,1426.047,576.385,1426.307,563.397z"/>
			<path d="M1422.29,680.276c-0.92,21.631-1.869,43.27-2.73,64.908C1420.411,723.545,1421.36,701.907,1422.29,680.276z"/>
			<path d="M1372.979,764.756c9.438-0.561,18.881-1.201,28.422-1.84c-9.531,0.65-18.975,1.279-28.41,1.85
				c-34.631,2.08-69.271,3.83-103.92,5.279C1303.717,768.596,1338.346,766.836,1372.979,764.756z"/>
			<path fill="#FFFFFF" d="M1278.336,413.406c0.07,9.219-0.27,18.438-1.629,27.438c-0.59,3.852-1.361,7.67-2.361,11.432
				c-0.287,1.08-0.6,2.148-0.92,3.211c-0.33,1.066-0.68,2.129-1.039,3.188c-0.369,1.049-0.76,2.102-1.17,3.15
				c-0.621,1.568-1.291,3.129-2.01,4.67c-0.24,0.52-0.49,1.029-0.74,1.539c-1.93,3.93-4.52,7.551-7.34,11.051
				c-0.711,0.869-1.42,1.74-2.148,2.6c-0.73,0.859-1.463,1.713-2.199,2.563c-1.48,1.709-2.959,3.4-4.393,5.109
				c-0.93,1.107-1.891,2.188-2.881,3.229c-0.5,0.531-1,1.041-1.51,1.551c-6.6,6.609-14.27,11.98-22.311,16.813
				c-7.238,4.35-14.568,8.559-22.039,12.479c-1.66,0.869-4.291,0.74-6.211,0.17c-37.959-11.461-67.971-33.811-90.229-66.551
				c-0.9-1.32-1.141-3.77-0.59-5.299c0.619-1.711,1.238-3.43,1.859-5.15c2.459-6.857,4.857-13.76,7.459-20.568
				c1.947-5.102,4.02-10.16,6.277-15.12c5.021-10.98,11.803-21.15,17.941-31.602c2.119-3.608,4.139-7.34,6.449-10.818
				c0.43-0.63,0.859-1.262,1.301-1.87c0.67-0.92,1.357-1.812,2.09-2.682c2.809-3.328,5.648-6.648,8.549-9.93
				c4.83-5.45,9.82-10.76,15.09-15.75c11.4-10.8,23.111-21.37,35.514-30.99c15.85-12.31,32.479-23.63,48.85-35.25
				c4.971-3.53,10.01-7.07,15.41-9.82c3.381-1.71,7.471-2.4,11.291-2.63c0.646-0.04,1.438,0.39,2.188,1.02
				c0.211,0.17,0.41,0.36,0.611,0.56c0.68,0.69,1.289,1.51,1.646,2.23c1.014,1.98,0.963,4.5,1.5,7.51
				c-1.396,3.84-2.881,8.1-4.486,12.37c-0.23,0.61-0.461,1.22-0.701,1.83c-1.59,4.14-2.98,8.32-4.129,12.55
				c-0.461,1.7-0.893,3.4-1.271,5.1c-1.729,7.69-2.68,15.51-2.689,23.43c-0.051,25.58,0.561,51.15,0.871,76.729
				C1278.28,406.396,1278.307,409.906,1278.336,413.406z"/>
			<path d="M1233.586,256.976c1.121-0.77,2.271-1.56,3.461-2.38C1235.86,255.426,1234.708,256.216,1233.586,256.976z"/>
			<path d="M1222.87,771.795c7.701-0.26,15.396-0.539,23.1-0.83C1238.266,771.256,1230.571,771.536,1222.87,771.795z"/>
			<path d="M1231.94,258.116c-1.08,0.75-2.143,1.47-3.184,2.19C1229.797,259.586,1230.86,258.856,1231.94,258.116z"/>
			<path d="M1204.887,276.456c2.563-1.74,5.129-3.48,7.699-5.2C1210.016,272.986,1207.45,274.716,1204.887,276.456z"/>
			<path d="M1165.096,773.497c19.264-0.48,38.514-1.051,57.771-1.701C1203.61,772.456,1184.36,773.026,1165.096,773.497z"/>
			<path fill="#FFFFFF" d="M1191.12,554.215c-43.279,50.291-85.799,99.701-128.699,149.551c-6.141,7.109-12.27,14.24-18.42,21.381
				c0.01,0,0.01,0,0.02,0l-0.01,0.012c111.561-0.5,222.039-3.32,332.33-8.711v-0.012c11.039-76.471,2.609-518.52-10.939-570.85
				c-140.42-11.68-280.9-16.62-421.449-14.79c-7.602,0.1-15.191,0.22-22.791,0.36c-3.82,0.06-7.629,0.14-11.439,0.22
				c-7.6,0.16-15.188,0.34-22.791,0.54c-7.617,0.19-15.236,0.41-22.85,0.65c-19.02,0.59-38.029,1.31-57.049,2.16
				c-19.031,0.84-38.063,1.8-57.09,2.9c-38.053,2.18-76.111,4.86-114.182,8.03v0.01c-16.27,190.41-19.068,380.241-10.631,570.62
				v0.01c0.721,0.051,1.4,0.102,2.051,0.15c0.99,0.08,1.91,0.148,2.801,0.211c0.301,0.02,0.59,0.039,0.891,0.059
				c0.58,0.041,1.148,0.07,1.73,0.104c9.777,0.389,19.561,0.799,29.342,1.209c9.775,0.42,19.559,0.84,29.34,1.238
				c4.889,0.199,9.777,0.393,14.68,0.592c14.67,0.58,29.35,1.107,44.021,1.51c33.617,0.92,67.25,1.6,100.879,2.27
				c20.18,0.4,40.357,0.791,60.529,1.24c1.012,0.021,1.891-0.049,2.682-0.27c0.277-0.07,0.549-0.16,0.809-0.279
				c0.26-0.111,0.521-0.24,0.76-0.393c0.361-0.221,0.711-0.5,1.031-0.828c0.439-0.432,0.859-0.961,1.26-1.592
				c19.029-29.75,38.271-59.357,57.289-89.107c33.57-52.49,67.031-105.051,100.563-157.563c0.75-1.18,1.709-2.229,3.029-3.92
				c8.318,14.369,17.85,27.01,28.68,37.932c1.029,1.039,2.07,2.061,3.131,3.068C1132.256,532.586,1158.877,546.676,1191.12,554.215z
				 M1406.78,118.276c15.27,143.64,21.881,287.73,19.75,432.131c-0.063,4.33-0.143,8.66-0.221,12.99
				c-0.262,12.986-0.602,25.979-1.012,38.959c-0.816,25.979-1.891,51.947-3.01,77.92c-0.93,21.631-1.881,43.27-2.729,64.908
				c-0.172,4.342-0.342,8.672-0.5,13c-0.041,0.98-0.199,1.973-0.369,3.563c-5.813,0.389-11.563,0.779-17.289,1.17
				c-9.541,0.639-18.98,1.279-28.422,1.84c-34.631,2.08-69.262,3.84-103.908,5.289c-7.701,0.32-15.4,0.631-23.104,0.92
				c-7.701,0.291-15.396,0.57-23.1,0.83c-19.26,0.65-38.51,1.221-57.77,1.701c-15.41,0.379-30.813,0.709-46.223,0.979
				c-7.709,0.133-15.42,0.262-23.119,0.369c-3.85,0.063-7.711,0.111-11.561,0.15c-7.709,0.1-15.41,0.18-23.119,0.25
				c-7.711,0.07-15.42,0.121-23.121,0.17c-7.709,0.041-15.42,0.07-23.129,0.09c-3.852,0.01-7.711,0.021-11.563,0.021
				c-0.68,0-1.309,0.051-1.898,0.148c-0.59,0.102-1.141,0.25-1.65,0.439c-0.52,0.201-1.01,0.438-1.469,0.721
				c-0.461,0.271-0.898,0.6-1.33,0.969c-0.01,0-0.01,0-0.01,0c-0.291,0.24-0.58,0.5-0.852,0.781c-0.279,0.279-0.561,0.57-0.84,0.879
				c-30.621,33.854-61.301,67.65-91.961,101.471c-1.869,2.07-3.75,4.133-5.619,6.199c-5.631,6.201-11.24,12.41-16.818,18.65
				c-0.393,0.43-0.791,0.85-1.201,1.26c-2.049,2.041-4.359,3.74-6.859,5.104c-2.75,1.486-5.729,2.59-8.83,3.27
				c-10.52,2.299-22.447-0.15-31.729-7.541c-1.051-0.84-2.041-1.709-2.961-2.609c-11.699-11.5-12.75-27.988-3.209-42.289
				c19.039-28.561,37.5-57.488,56.18-86.279c0.209-0.32,0.23-0.789,0.42-1.74c0.029-0.129,0.063-0.27,0.102-0.42h-0.012v-0.01
				c-24.988-0.471-49.961-1.063-74.92-1.801c-12.479-0.369-24.961-0.779-37.43-1.221c-62.391-2.221-124.75-5.398-187.291-9.791
				c-0.16-2.389-0.33-4.777-0.5-7.158c-0.34-4.891-0.689-9.762-1.01-14.609c-0.131-2.209-0.271-4.42-0.391-6.629
				c-1.949-35.281-3.471-70.563-4.52-105.861c-0.092-3.16-0.184-6.309-0.271-9.469c-1.279-46.813-1.729-93.65-1.301-140.5
				c0.16-17.791,0.41-35.58,0.76-53.361c0.361-17.79,0.83-35.568,1.441-53.349c0.309-8.88,0.646-17.771,1.029-26.65
				c0.381-8.89,0.801-17.77,1.26-26.66c0.938-17.76,2.041-35.51,3.35-53.25c0.24-3.21,0.48-6.41,0.721-9.62v-0.01
				c0.98-12.83,2.029-25.65,3.109-38.46c1.9-22.43,3.91-44.86,5.891-67.28c0.57-6.41,1.141-12.82,1.689-19.23
				c0.561-6.41,1.121-12.81,1.66-19.22c0.061-0.69,0.16-1.3,0.311-1.82c0.48-1.57,1.512-2.37,3.779-2.57
				c46.121-4,92.191-8.64,138.361-12.05c100.43-7.42,201.039-10.4,301.709-8.6c4.318,0.08,8.641,0.16,12.961,0.25
				c51.84,1.07,103.68,2.99,155.469,5.49c12.951,0.62,25.9,1.29,38.84,1.98c12.211,0.65,24.42,1.48,36.631,2.41
				c6.102,0.46,12.199,0.96,18.301,1.47c3.039,0.26,6.09,0.521,9.141,0.78c15.25,1.32,30.49,2.74,45.729,4.15
				c6.104,0.57,12.189,1.13,18.289,1.68c6.104,0.55,12.191,1.09,18.291,1.61c0.74,0.06,1.434,0.12,2.08,0.18
				c0.65,0.06,1.25,0.12,1.82,0.189c0.279,0.03,0.549,0.061,0.818,0.09c0.521,0.07,1.012,0.14,1.461,0.22
				c0.229,0.04,0.439,0.08,0.648,0.12c0.42,0.09,0.801,0.19,1.16,0.29c0.17,0.06,0.34,0.11,0.51,0.17
				c0.813,0.31,1.441,0.69,1.941,1.21c0.5,0.51,0.879,1.16,1.17,1.99C1406.071,111.466,1406.336,114.176,1406.78,118.276z"/>
			<path d="M1169.7,297.586c-13.76-7.62-27.5-15.28-41.301-22.84c13.801,7.56,27.541,15.21,41.301,22.83
				c3.35,1.86,5.561,1.76,8.33-0.64c5.01-4.33,10.01-8.71,15.396-12.54c3.791-2.69,7.611-5.33,11.461-7.94
				c-3.85,2.62-7.67,5.26-11.461,7.95c-5.389,3.83-10.389,8.21-15.396,12.54C1175.256,299.346,1173.047,299.436,1169.7,297.586z"/>
			<path d="M1158.547,354.006c-2.898,3.28-5.74,6.602-8.551,9.93c-0.73,0.87-1.42,1.762-2.09,2.682c0.66-0.92,1.35-1.812,2.08-2.682
				C1152.797,360.606,1155.651,357.286,1158.547,354.006z"/>
			<path d="M1147.911,366.616c-0.441,0.608-0.871,1.24-1.301,1.87C1147.03,367.856,1147.458,367.226,1147.911,366.616z"/>
			<path d="M1118.877,774.475c15.41-0.27,30.813-0.6,46.219-0.979C1149.69,773.885,1134.29,774.206,1118.877,774.475z"/>
			<path d="M1115.94,426.026c-2.604,6.811-5,13.711-7.463,20.568C1110.926,439.737,1113.336,432.836,1115.94,426.026z"/>
			<path d="M1095.756,774.846c7.701-0.107,15.41-0.238,23.121-0.371C1111.167,774.616,1103.458,774.737,1095.756,774.846z"/>
			<path d="M1061.081,775.247c7.709-0.07,15.41-0.15,23.119-0.25C1076.491,775.096,1068.79,775.176,1061.081,775.247z"/>
			<path d="M1062.417,703.766c-6.119,7.109-12.26,14.24-18.4,21.381c-0.01,0-0.01,0-0.02,0
				C1050.151,718.006,1056.28,710.875,1062.417,703.766z"/>
			<path d="M1037.958,775.417c7.699-0.051,15.41-0.1,23.119-0.17C1053.37,775.317,1045.661,775.375,1037.958,775.417z"/>
			<path d="M1086.831,252.426c13.949,7.28,27.779,14.75,41.568,22.32c-13.789-7.56-27.619-15.04-41.568-22.31
				c-14.16-7.39-29.301-12.83-45.211-15.48c-5.869-0.98-9.34-1.33-11.9-0.06c2.551-1.28,6.021-0.93,11.9,0.05
				C1057.53,239.596,1072.667,245.036,1086.831,252.426z"/>
			<path d="M1029.04,237.286c0.211-0.14,0.438-0.27,0.67-0.38C1029.479,237.026,1029.256,237.146,1029.04,237.286z"/>
			<path d="M1028.401,237.766c0.195-0.17,0.406-0.33,0.629-0.47C1028.821,237.446,1028.61,237.596,1028.401,237.766z"/>
			<path d="M1028.387,237.776c-0.1,0.09-0.197,0.18-0.301,0.27C1028.19,237.946,1028.29,237.856,1028.387,237.776z"/>
			<path d="M1014.831,775.506c7.709-0.02,15.42-0.051,23.129-0.09C1030.25,775.456,1022.54,775.497,1014.831,775.506z"/>
			<path d="M1014.661,269.596c-2.701,7.69-5.281,15.42-7.84,23.16C1009.377,285.026,1011.95,277.286,1014.661,269.596z"/>
			<path d="M1001.37,775.676c-0.59,0.102-1.129,0.25-1.65,0.439C1000.229,775.926,1000.78,775.776,1001.37,775.676z"/>
			<path d="M996.917,777.805c0.43-0.367,0.871-0.697,1.33-0.969C997.79,777.125,997.336,777.446,996.917,777.805z"/>
			<path d="M996.911,777.805c-0.291,0.25-0.57,0.5-0.854,0.781C996.331,778.305,996.62,778.045,996.911,777.805z"/>
			<path d="M977.797,361.836c0.9-1.54,1.789-3.1,2.66-4.66C979.596,358.746,978.708,360.296,977.797,361.836z"/>
			<path d="M927.321,416.577c8.479-5.861,16.328-12.392,23.539-19.611C943.649,404.196,935.797,410.726,927.321,416.577z"/>
			<path d="M943.95,130.796c-7.59,0.1-15.189,0.22-22.789,0.36C928.756,131.016,936.346,130.896,943.95,130.796z"/>
			<path d="M923.04,419.446c1.439-0.939,2.871-1.9,4.281-2.869C925.911,417.555,924.479,418.506,923.04,419.446z"/>
			<path d="M916.411,423.536c1.5-0.879,2.979-1.779,4.438-2.699C919.387,421.756,917.911,422.657,916.411,423.536z"/>
			<path d="M905.62,429.446c2.1-1.08,4.18-2.182,6.25-3.32C909.797,427.266,907.717,428.375,905.62,429.446z"/>
			<path d="M909.717,131.376c-7.6,0.16-15.188,0.34-22.791,0.54C894.53,131.716,902.12,131.536,909.717,131.376z"/>
			<path d="M897.637,887.135c-5.619,6.201-11.229,12.41-16.811,18.65c-0.391,0.438-0.789,0.861-1.209,1.26
				c0.41-0.41,0.809-0.83,1.199-1.26C886.399,899.545,892.006,893.336,897.637,887.135z"/>
			<path d="M882.717,774.526v0.01c-24.988-0.469-49.961-1.07-74.92-1.813C832.756,773.465,857.729,774.055,882.717,774.526z"/>
			<path d="M863.926,915.417c3.104-0.68,6.08-1.781,8.83-3.27C870.006,913.647,867.03,914.747,863.926,915.417z"/>
			<path fill="#FFFFFF" d="M846.53,371.686c5.119-1.77,10.188-3.698,15.229-5.778c13.941-5.771,25.951-13.54,35.73-23.48
				c6.92-7.028,12.74-15.13,17.35-24.39c1.16-2.32,2.24-4.7,3.25-7.16c0.531-1.29,1.051-2.58,1.561-3.87
				c1.041-2.59,2.051-5.18,3.041-7.78c6.479-16.91,12.289-34.08,18.408-51.13c6.32-17.57,12.65-35.13,24.131-50.19
				c2.699-3.55,5.551-6.84,8.57-9.87c0.859-0.86,1.729-1.7,2.619-2.52c4.451-4.1,9.26-7.64,14.49-10.56
				c1.051-0.58,2.107-1.14,3.188-1.68c1.08-0.53,2.17-1.04,3.289-1.53c1.67-0.72,3.381-1.39,5.131-2c2.342-0.81,4.75-1.52,7.24-2.12
				c1.24-0.29,2.51-0.57,3.789-0.81c26.07-4.95,50.66,0.4,74.939,8.87c4.352,1.52,8.65,3.12,12.922,4.8
				c1.059,0.42,2.129,0.85,3.188,1.28c2.121,0.86,4.24,1.74,6.344,2.64c5.27,2.25,10.479,4.61,15.641,7.06
				c2.068,0.98,4.119,1.98,6.17,2.99c2.059,1.01,4.1,2.03,6.139,3.07c8.15,4.14,16.211,8.49,24.201,12.96
				c7.99,4.48,15.93,9.08,23.83,13.72c2.061,1.21,4.119,2.43,6.17,3.65c0.01,0,0.01,0,0.01,0c4.109,2.46,8.221,4.93,12.34,7.43
				c2.07,1.26,4.131,2.52,6.211,3.78c2.068,1.27,4.158,2.54,6.25,3.82c2.09,1.28,4.189,2.57,6.299,3.86
				c2.121,1.3,4.24,2.6,6.391,3.9c2.131,1.31,4.291,2.62,6.461,3.95c-1.188,0.82-2.34,1.61-3.461,2.38
				c-0.549,0.39-1.1,0.77-1.646,1.14c-1.08,0.74-2.143,1.47-3.184,2.19c-1.561,1.07-3.078,2.11-4.607,3.15
				c-3.84,2.61-7.699,5.2-11.563,7.8c-2.568,1.72-5.141,3.46-7.697,5.2c-3.852,2.61-7.672,5.25-11.463,7.94
				c-5.389,3.83-10.389,8.21-15.396,12.54c-2.771,2.4-4.98,2.5-8.33,0.64c-13.76-7.62-27.5-15.27-41.301-22.83
				c-13.789-7.57-27.619-15.04-41.568-22.32c-14.16-7.39-29.301-12.83-45.211-15.479c-5.881-0.98-9.352-1.33-11.9-0.05
				c0,0,0,0.01-0.01,0.01c-0.229,0.11-0.459,0.24-0.67,0.38c0,0,0,0.01-0.01,0.01c-0.221,0.14-0.434,0.3-0.631,0.47
				c0,0.01,0,0.01-0.012,0.01c-0.1,0.08-0.197,0.17-0.301,0.27c-1.729,1.62-3.107,4.35-4.857,8.67
				c-3.053,7.55-5.869,15.19-8.57,22.88c-2.709,7.69-5.279,15.43-7.84,23.16v0.01c-7.313,22.14-15.09,44.04-26.359,64.41
				c-0.869,1.562-1.76,3.12-2.66,4.66c-1.818,3.102-3.729,6.16-5.74,9.18c-6.309,9.48-13.369,18.12-21.199,25.95
				c-7.209,7.222-15.061,13.75-23.539,19.611c-1.41,0.969-2.84,1.93-4.279,2.869c-0.729,0.471-1.451,0.93-2.189,1.391
				c-1.459,0.92-2.939,1.82-4.439,2.699c-1.488,0.881-3.01,1.75-4.539,2.59c-2.07,1.141-4.15,2.24-6.25,3.32
				c-1.039,0.541-2.09,1.061-3.141,1.58c-30.512,15.051-63.23,23.16-96.689,28.91c-5.74,0.988-11.48,1.891-17.24,2.721
				c-4.311,0.619-8.629,1.199-12.949,1.74c-1.449,0.18-2.891,0.357-4.33,0.527c-14.42,1.723-28.869,3.039-43.34,4.143
				c-20.271,1.52-40.58,2.59-60.891,3.646c-4.4,0.23-8.801,0.441-13.221,0.65c-4.42,0.211-8.852,0.41-13.318,0.621
				c0-25.051,0-49.48,0-74.522c0.939-0.069,1.869-0.13,2.799-0.2c6.461-0.438,12.51-0.79,18.541-1.34
				c31.529-2.88,63.109-5.37,94.6-8.6c4.85-0.49,9.689-1.01,14.529-1.54c2.42-0.271,4.84-0.54,7.262-0.82
				c1.789-0.2,3.578-0.42,5.369-0.66c5.35-0.688,10.689-1.51,15.99-2.46c1.77-0.31,3.539-0.64,5.299-0.989
				c3.521-0.689,7.031-1.431,10.531-2.239h0.01c3.49-0.8,6.979-1.67,10.449-2.602c1.73-0.46,3.471-0.938,5.199-1.438
				C836.268,375.096,841.417,373.466,846.53,371.686z"/>
			<path d="M832.2,907.875c9.279,7.391,21.211,9.84,31.729,7.541c-10.52,2.309-22.449-0.141-31.729-7.531
				c-1.063-0.84-2.039-1.719-2.959-2.619C830.161,906.167,831.149,907.036,832.2,907.875z"/>
			<path d="M864.081,132.566c-19.01,0.6-38.031,1.32-57.051,2.16C826.047,133.876,845.057,133.156,864.081,132.566z"/>
			<path d="M805.79,459.938c33.461-5.75,66.18-13.859,96.689-28.91c-30.512,15.061-63.23,23.17-96.689,28.92
				c-5.74,0.979-11.48,1.891-17.24,2.711C794.307,461.827,800.047,460.926,805.79,459.938z"/>
			<path d="M807.797,772.725c-12.479-0.367-24.951-0.777-37.43-1.219C782.836,771.946,795.321,772.356,807.797,772.725z"/>
			<path d="M775.596,464.397c4.32-0.541,8.645-1.121,12.951-1.74C784.241,463.276,779.917,463.856,775.596,464.397z"/>
			<path d="M727.926,469.067c14.473-1.104,28.92-2.42,43.342-4.143C756.846,466.647,742.399,467.975,727.926,469.067z"/>
			<path d="M667.04,472.715c20.311-1.059,40.621-2.129,60.891-3.646c-20.27,1.527-40.58,2.6-60.891,3.656
				c-4.4,0.223-8.799,0.441-13.219,0.643C658.241,473.157,662.637,472.946,667.04,472.715z"/>
			<path d="M635.756,145.656c38.07-3.17,76.131-5.85,114.184-8.03c-38.053,2.19-76.109,4.87-114.184,8.04V145.656L635.756,145.656z"
				/>
		</g>
	</g>
</g>
</svg>
