<?xml version="1.0" encoding="utf-8"?>
<!-- Generator: Adobe Illustrator 16.0.0, SVG Export Plug-In . SVG Version: 6.00 Build 0)  -->
<!DOCTYPE svg PUBLIC "-//W3C//DTD SVG 1.1//EN" "http://www.w3.org/Graphics/SVG/1.1/DTD/svg11.dtd">
<svg version="1.1" id="Layer_1" xmlns="http://www.w3.org/2000/svg" xmlns:xlink="http://www.w3.org/1999/xlink" x="0px" y="0px"
	 width="852.019px" height="851.804px" viewBox="574.895 75.295 852.019 851.804"
	 enable-background="new 574.895 75.295 852.019 851.804" xml:space="preserve">
<g opacity="0.2">
	<g id="XMLID_1_">
		<g>
			<path fill="#FFFFFF" d="M1414.734,804.782c0,1.83,0.13,3.43-0.021,5c-2.938,30.66-5.931,61.318-8.83,91.99
				c-0.14,1.447-0.46,2.479-1.21,3.146c-0.17,0.15-0.358,0.291-0.568,0.4c-0.102,0.061-0.21,0.109-0.33,0.16
				c-0.24,0.1-0.5,0.18-0.779,0.238c-0.29,0.063-0.601,0.109-0.95,0.143c-8.13,0.75-16.25,1.539-24.369,2.34
				c-24.359,2.398-48.721,4.891-73.131,6.67c-46.34,3.379-92.729,6.471-139.148,8.58c-13,0.59-26,1.107-39.012,1.568
				c-10.209,0.352-20.43,0.66-30.64,0.932c-6.091,0.16-12.19,0.299-18.28,0.43c-3.699,0.07-7.41,0.143-11.119,0.211
				c-6.181,0.102-12.351,0.199-18.529,0.271c-25.45,0.299-50.91,0.318-76.381,0.039c-12.141-0.141-24.291-0.352-36.431-0.619
				c-11.37-0.26-22.729-0.563-34.101-0.893c-34.09-1.01-68.18-2.328-102.271-3.658c-20.92-0.813-41.8-2.439-63.908-3.771
				c23.89-22.479,46.698-43.938,69.488-65.43c10.54-9.939,21.102-19.869,31.479-30c0.989-0.969,1.979-1.729,3.021-2.289
				c0.34-0.189,0.689-0.359,1.05-0.51c0,0,0-0.012,0.012,0c0.188-0.08,0.37-0.15,0.55-0.211c0.37-0.141,0.75-0.25,1.15-0.33
				c0.198-0.039,0.398-0.08,0.6-0.119c0.859-0.15,1.771-0.223,2.771-0.211c73.812,0.76,147.62,2.021,221.432,1.801
				c84.648-0.25,169.239-3.801,253.729-9.051c29.601-1.84,59.149-4.33,88.72-6.512c0.45-0.037,0.91-0.061,1.37-0.09
				c0.46-0.02,0.932-0.051,1.421-0.068C1412.495,804.891,1413.554,804.842,1414.734,804.782z"/>
			<path d="M1411.514,804.942c-0.488,0.02-0.959,0.049-1.42,0.068C1410.554,804.981,1411.034,804.961,1411.514,804.942z"/>
			<path fill="#FFFFFF" d="M1393.745,95.161c10.369,0.89,11.6,1.13,12.59,9.13c0.069,0.57,0.14,1.18,0.21,1.83
				c0.029,0.33,0.069,0.66,0.109,1.01c0.029,0.35,0.068,0.71,0.108,1.08c15.28,143.63,21.892,287.71,19.761,432.1
				c-0.061,4.33-0.141,8.66-0.221,12.99c-0.26,12.979-0.6,25.971-1.01,38.959c-0.28,8.65-0.58,17.313-0.9,25.973
				c-0.8,21.639-1.729,43.277-2.658,64.92c-0.562,12.979-1.12,25.959-1.649,38.947c-0.36,8.66-0.71,17.313-1.03,25.973
				c-0.01,0.25-0.021,0.5-0.04,0.76c-0.069,0.779-0.18,1.65-0.3,2.9c-7.46,0.5-14.84,1.02-22.182,1.52
				c-3.67,0.25-7.328,0.5-10.988,0.74c-3.65,0.24-7.301,0.469-10.95,0.688c-135.11,8.08-270.35,11.49-405.69,10.779
				c-39.487-0.209-78.979-0.709-118.447-1.949c-6.771-0.221-10.46,2.021-14.69,6.121c-20.05,19.42-40.12,38.811-60.21,58.189
				c-20.08,19.379-40.18,38.75-60.26,58.129c-0.36,0.34-0.71,0.689-1.07,1.051c-0.359,0.34-0.71,0.689-1.068,1.051
				c-0.352,0.352-0.711,0.709-1.052,1.068c-0.35,0.361-0.688,0.73-1.02,1.102c-0.78,0.859-1.563,1.699-2.353,2.512
				c-0.789,0.799-1.59,1.58-2.39,2.33c-0.41,0.369-0.812,0.738-1.22,1.1c-0.813,0.709-1.62,1.4-2.45,2.07
				c-1.25,0.988-2.51,1.92-3.79,2.789c-0.84,0.568-1.7,1.119-2.561,1.648c-14.739,8.891-31.552,9.771-49.869,4.119
				c-8.25-2.549-15.961-6.648-22.82-11.869c-0.76-0.58-1.51-1.17-2.25-1.779c-9.62-7.898-17.4-18.061-22.391-29.229
				c-0.579-1.291-1.119-2.59-1.619-3.9c-0.29-0.76-0.57-1.527-0.83-2.301c-0.09-0.26-0.182-0.52-0.262-0.777
				c-0.398-1.189-0.761-2.381-1.091-3.58c-1.229-4.49-2-9.07-2.277-13.67c-0.41-6.9,0.237-13.381,1.89-19.473
				c0.07-0.25,0.14-0.5,0.21-0.76c0.19-0.629,0.38-1.26,0.58-1.879c0.08-0.262,0.17-0.521,0.26-0.781
				c0.261-0.779,0.55-1.549,0.841-2.309c0-0.012,0-0.012,0.012-0.012c0.34-0.881,0.71-1.75,1.09-2.609
				c0.77-1.721,1.64-3.41,2.59-5.07c0.71-1.238,1.47-2.469,2.28-3.68c0.27-0.4,0.54-0.801,0.817-1.199
				c0.563-0.791,1.143-1.58,1.74-2.359c1.5-1.949,3.141-3.859,4.9-5.721c5.33-5.621,10.688-11.221,16.05-16.811
				c5.359-5.602,10.72-11.182,16.07-16.789c0.42-0.432,0.817-0.881,1.25-1.381c0.289-0.33,0.6-0.682,0.92-1.063c0,0-0.011,0,0-0.01
				c0.5-0.57,1.05-1.209,1.698-1.959h-0.011c-0.698-0.041-1.39-0.09-2.08-0.131c-4.14-0.262-8.17-0.512-12.107-0.75
				c-5.92-0.359-11.683-0.721-17.44-1.102c-10.29-0.67-20.57-1.391-31.4-2.119c-0.459-6.83-0.97-13.551-1.407-20.25
				c-0.103-1.471-0.19-2.949-0.271-4.42c-0.05-0.75-0.09-1.512-0.13-2.271c-1.01-18.289-1.91-36.58-2.7-54.869v-0.01
				c-0.39-9.143-0.75-18.281-1.09-27.432v-0.012c-0.33-9.139-0.63-18.289-0.91-27.43c-0.27-9.16-0.51-18.32-0.72-27.471
				c-0.2-9.141-0.38-18.279-0.521-27.43c-0.658-42.541-0.578-85.092,0.359-127.648c0.25-11.161,0.51-22.321,0.8-33.481
				c0.88-33.479,2.03-66.96,3.8-100.39c0.291-5.61,0.61-11.22,0.94-16.84c0.34-5.61,0.69-11.22,1.05-16.83
				c0.551-8.41,1.143-16.82,1.74-25.23c1.83-25.23,3.85-50.46,5.811-75.68c0.312-3.95,0.642-7.9,1-11.84
				c0.239-2.63,0.489-5.26,0.739-7.89c0.261-2.63,0.521-5.26,0.79-7.89c1.2-11.84,2.49-23.67,3.59-35.52
				c0.09-0.99,0.24-1.82,0.5-2.49c0.052-0.14,0.11-0.27,0.17-0.39c0.131-0.25,0.28-0.47,0.45-0.67c0.091-0.1,0.182-0.19,0.28-0.28
				c0.689-0.63,1.71-0.98,3.229-1.12c24.263-2.18,48.5-4.64,72.74-6.88c12.12-1.12,24.25-2.19,36.392-3.14c0,0,0-0.01,0.011,0
				c2.42-0.18,4.85-0.37,7.28-0.55c15.31-1.14,30.64-2.25,45.979-3.25c25.57-1.66,51.15-3.03,76.74-3.74
				c58.64-1.62,117.33-3.23,175.97-3.07c8.141,0.02,16.29,0.08,24.44,0.18c8.64,0.1,17.277,0.24,25.907,0.4
				c8.541,0.17,17.07,0.37,25.603,0.59c0.229,0,0.46,0.01,0.68,0.02c8.521,0.23,17.03,0.48,25.552,0.76
				c43.188,1.42,86.369,3.49,129.511,5.81C1296.234,85.691,1344.964,90.981,1393.745,95.161z M685.705,709.17
				c4.02,0.211,6.76-0.938,9.579-3.818c77.62-79.078,155.319-158.102,233.11-237.01c2.358-2.398,3.148-4.391,2.72-7.051
				c-0.102-0.609-0.261-1.26-0.489-1.949c-0.051-0.172-0.11-0.342-0.17-0.521c-0.471-1.32-0.921-2.629-1.36-3.949
				c-15.159-45.6-13-90.59,7.4-134.55c4.329-9.33,9.3-18.07,14.88-26.22c0.01,0,0-0.01,0-0.01c1.409-2.03,2.84-4.03,4.311-5.99
				c4.431-5.88,9.199-11.43,14.319-16.64c13.649-13.89,29.75-25.37,48.181-34.38c10.359-5.06,20.83-9.08,31.391-12.06
				c0.818-0.23,1.631-0.45,2.45-0.67c1.63-0.43,3.25-0.84,4.88-1.23c5.721-1.34,11.46-2.39,17.229-3.15
				c1.642-0.21,3.29-0.4,4.939-0.57c23.421-2.37,47.25,0.09,71.391,7.16c0.18,0.05,0.37,0.11,0.551,0.17
				c0.42,0.12,0.84,0.25,1.25,0.39c0.761,0.24,1.511,0.5,2.279,0.77c1.051,0.37,2.109,0.76,3.21,1.16l0.011,0.01
				c0.629,0.24,1.271,0.48,1.92,0.72c1.971,0.74,4.051,1.54,6.341,2.36c-0.62,0.48-1.149,0.89-1.62,1.24
				c-1.229,0.92-2.012,1.48-2.689,2.14c-8.05,7.84-16.101,15.69-24.141,23.54s-16.079,15.71-24.102,23.58
				c-4.84,4.75-9.659,9.53-14.47,14.31c-4.818,4.78-9.62,9.57-14.438,14.34c-9.641,9.55-19.33,19.05-29.221,28.34
				c-30.101,28.271-31.739,75.78-3.041,105.459c29.711,30.73,77.08,31.42,106.49,1.563c5.142-5.223,10.301-10.42,15.439-15.631
				c5.148-5.211,10.29-10.421,15.398-15.671c22.182-22.778,44.28-45.63,66.461-68.398c3.569-3.66,7.431-7.04,11.391-10.771
				c0.08,0.182,0.16,0.36,0.238,0.53c0.15,0.35,0.302,0.67,0.44,0.97c0.351,0.762,0.64,1.41,0.897,2.08
				c0.922,2.42,1.771,4.852,2.57,7.312c0.141,0.42,0.271,0.85,0.41,1.27c0.311,0.99,0.62,1.98,0.91,2.98
				c0.311,1.06,0.609,2.108,0.909,3.18c16.649,60.68-1.34,130.151-47.239,173.401c-1.141,1.068-2.28,2.129-3.431,3.17
				c-1.722,1.561-3.46,3.08-5.199,4.561c-2.32,1.979-4.66,3.879-7.011,5.719c-1.771,1.383-3.54,2.723-5.33,4.021
				c-1.779,1.301-3.569,2.57-5.38,3.791c-1.2,0.811-2.399,1.607-3.609,2.398c-1.819,1.182-3.641,2.311-5.479,3.41
				c-1.829,1.09-3.67,2.148-5.521,3.182c-0.011,0-0.011,0-0.011,0c-1.229,0.68-2.471,1.34-3.71,1.988
				c-4.97,2.592-10.011,4.91-15.109,6.959c-1.271,0.512-2.551,1.012-3.83,1.49c-1.92,0.711-3.851,1.393-5.79,2.041
				c-3.24,1.078-6.5,2.049-9.79,2.908c-1.311,0.342-2.62,0.67-3.938,0.99c-0.66,0.158-1.319,0.311-1.989,0.449
				c-1.319,0.301-2.649,0.58-3.979,0.842c-29.261,5.777-60.359,3.568-93.141-6.313c-1.46-0.438-2.641-0.529-3.688-0.33
				c-0.229,0.041-0.45,0.102-0.671,0.17c-0.329,0.109-0.649,0.25-0.959,0.42c-0.842,0.451-1.631,1.111-2.48,1.951
				c-34.96,34.67-69.96,69.299-104.97,103.949h-0.011c-11.659,11.539-23.33,23.09-35,34.631c-0.271,0.271-0.539,0.549-0.812,0.85
				c-0.817,0.891-1.71,1.949-3.067,3.471c162.158,1.852,322.979-0.221,483.59-8.209c1.02-6.521,1.869-16.131,2.568-28.25
				c0.08-1.352,0.149-2.73,0.229-4.143c0.04-0.699,0.069-1.41,0.108-2.129c0.069-1.439,0.142-2.91,0.211-4.4
				c0.069-1.5,0.141-3.029,0.199-4.578c0.069-1.563,0.13-3.143,0.189-4.75c0.061-1.609,0.119-3.25,0.181-4.91
				c0.14-4.16,0.279-8.49,0.399-12.971c0.05-1.789,0.101-3.609,0.14-5.449c0.051-1.82,0.091-3.66,0.131-5.529
				c0-0.041,0-0.092,0-0.131c0.069-2.789,0.13-5.631,0.181-8.529c0-0.029,0-0.068,0-0.109c0.08-3.881,0.141-7.842,0.199-11.891
				c0-0.029,0-0.061,0-0.09c1.319-89.041-0.529-216.851-4.3-317.88c-0.221-6.08-0.461-12.06-0.7-17.94
				c-0.141-3.52-0.29-7-0.438-10.44c-0.101-2.3-0.2-4.57-0.302-6.83c-0.1-2.25-0.198-4.48-0.31-6.7c-0.101-2.21-0.2-4.4-0.312-6.57
				c-0.11-2.17-0.209-4.32-0.319-6.45c-0.109-2.12-0.22-4.23-0.33-6.3c-0.1-2.08-0.22-4.14-0.329-6.17
				c-0.221-4.06-0.449-8.02-0.681-11.88c-0.05-0.96-0.109-1.92-0.17-2.87c-0.12-1.9-0.229-3.78-0.352-5.62
				c-0.938-14.78-1.938-27.77-2.989-38.51c-0.131-1.34-0.261-2.65-0.391-3.92c-1.199-11.44-2.449-19.95-3.74-24.88
				c-3.789-0.32-7.59-0.63-11.38-0.93c-7.579-0.62-15.17-1.21-22.75-1.78c-11.38-0.86-22.76-1.67-34.141-2.44
				c-11.38-0.77-22.76-1.5-34.142-2.18c-11.379-0.68-22.76-1.32-34.14-1.91c-98.66-5.14-197.37-6.93-296.148-5.39
				c-11.41,0.17-22.82,0.4-34.229,0.67c-19.021,0.44-38.051,1.01-57.07,1.71c-68.5,2.5-137.028,6.6-205.619,12.31
				c-16.279,190.39-19.069,380.141-10.641,570.529v0.012c0.949,0.1,1.83,0.209,2.67,0.311c0.221,0.029,0.432,0.051,0.63,0.07
				c0.63,0.068,1.229,0.119,1.841,0.148c6.931,0.299,13.859,0.59,20.789,0.869c2.312,0.1,4.62,0.189,6.932,0.291
				c4.619,0.199,9.24,0.398,13.859,0.609C676.462,708.702,681.084,708.92,685.705,709.17z"/>
			<path d="M1381.044,608.641c-0.062,4.053-0.12,8.012-0.2,11.893C1380.915,616.651,1380.984,612.682,1381.044,608.641z"/>
			<path d="M1380.844,620.641c-0.05,2.9-0.108,5.74-0.18,8.529C1380.725,626.372,1380.784,623.532,1380.844,620.641z"/>
			<path d="M1380.665,629.301c-0.04,1.869-0.08,3.711-0.131,5.529C1380.574,633.012,1380.625,631.17,1380.665,629.301z"/>
			<path d="M1380.395,640.282c-0.119,4.479-0.261,8.811-0.398,12.969C1380.134,649.092,1380.264,644.762,1380.395,640.282z"/>
			<path d="M1379.814,658.161c-0.062,1.611-0.12,3.189-0.189,4.75C1379.684,661.352,1379.754,659.772,1379.814,658.161z"/>
			<path d="M1379.424,667.491c-0.07,1.49-0.141,2.961-0.21,4.398C1379.284,670.452,1379.354,668.981,1379.424,667.491z"/>
			<path d="M1379.104,674.022c-0.078,1.408-0.147,2.787-0.229,4.139C1378.955,676.813,1379.024,675.432,1379.104,674.022z"/>
			<path d="M1376.745,290.671c3.771,101.03,5.619,228.839,4.3,317.88C1382.364,519.5,1380.514,391.701,1376.745,290.671z"/>
			<path d="M1376.044,272.731c0.239,5.88,0.479,11.86,0.7,17.94C1376.514,284.591,1376.284,278.611,1376.044,272.731z"/>
			<path d="M1375.604,262.292c0.15,3.44,0.302,6.92,0.44,10.44C1375.895,269.211,1375.754,265.731,1375.604,262.292z"/>
			<path d="M1374.995,248.761c0.108,2.22,0.21,4.45,0.31,6.7C1375.194,253.211,1375.094,250.981,1374.995,248.761z"/>
			<path d="M1374.684,242.191c0.11,2.17,0.211,4.36,0.313,6.57C1374.895,246.551,1374.784,244.361,1374.684,242.191z"/>
			<path d="M1374.034,229.441c0.11,2.07,0.221,4.18,0.33,6.3C1374.254,233.622,1374.145,231.511,1374.034,229.441z"/>
			<path d="M1373.024,211.392c0.229,3.86,0.46,7.82,0.681,11.88C1373.484,219.211,1373.254,215.251,1373.024,211.392z"/>
			<path d="M1372.504,202.901c0.12,1.84,0.229,3.72,0.35,5.62C1372.734,206.622,1372.625,204.741,1372.504,202.901z"/>
			<path d="M1369.125,160.471c0.13,1.27,0.26,2.58,0.391,3.92C1369.384,163.051,1369.254,161.741,1369.125,160.471z"/>
			<path d="M1331.254,132.881c7.58,0.57,15.17,1.16,22.75,1.78C1346.424,134.051,1338.834,133.451,1331.254,132.881z"/>
			<path d="M1262.975,128.261c11.379,0.68,22.761,1.41,34.141,2.18C1285.734,129.671,1274.354,128.951,1262.975,128.261z"/>
			<path d="M1228.834,126.352c11.38,0.59,22.76,1.23,34.141,1.91C1251.594,127.582,1240.214,126.951,1228.834,126.352z"/>
			<path d="M1189.634,415.352c-5.108,5.25-10.25,10.46-15.398,15.672C1179.375,425.813,1184.514,420.602,1189.634,415.352z"/>
			<path d="M1174.234,431.022c-5.142,5.209-10.301,10.408-15.439,15.629C1163.934,441.432,1169.084,436.231,1174.234,431.022z"/>
			<path d="M1157.764,229.062c0.631,0.23,1.271,0.47,1.92,0.72C1159.034,229.542,1158.395,229.301,1157.764,229.062z"/>
			<path d="M1154.544,227.892c1.05,0.36,2.12,0.75,3.21,1.16C1156.654,228.651,1155.594,228.261,1154.544,227.892z"/>
			<path d="M1152.264,227.122c-0.41-0.14-0.83-0.27-1.25-0.39C1151.434,226.852,1151.854,226.981,1152.264,227.122z"/>
			<path d="M1117.864,77.261c-8.521-0.28-17.029-0.53-25.55-0.76C1100.834,76.721,1109.344,76.981,1117.864,77.261z"/>
			<path d="M1066.034,75.892c8.53,0.16,17.069,0.36,25.601,0.59C1083.104,76.261,1074.574,76.062,1066.034,75.892z"/>
			<path d="M1079.074,219.401c-1.649,0.17-3.301,0.36-4.939,0.57C1075.774,219.751,1077.424,219.562,1079.074,219.401z"/>
			<path d="M1052.024,224.352c1.63-0.44,3.25-0.85,4.88-1.23C1055.274,223.511,1053.654,223.921,1052.024,224.352z"/>
			<path d="M1066.034,75.892c-8.63-0.16-17.271-0.3-25.909-0.4c-8.15-0.1-16.301-0.16-24.439-0.18
				c8.149,0.02,16.289,0.07,24.431,0.17C1048.754,75.582,1057.395,75.721,1066.034,75.892z"/>
			<path d="M1018.184,237.082c-18.43,9.01-34.528,20.49-48.18,34.38c13.641-13.89,29.74-25.37,48.18-34.39
				c10.36-5.07,20.83-9.08,31.392-12.05C1039.014,228.001,1028.544,232.021,1018.184,237.082z"/>
			<path d="M1228.834,126.352c-98.66-5.13-197.37-6.93-296.15-5.39C1031.464,119.421,1130.174,121.211,1228.834,126.352z"/>
			<path d="M955.684,288.102c-1.47,1.96-2.898,3.96-4.31,5.99C952.764,292.051,954.205,290.062,955.684,288.102z"/>
			<path d="M931.114,461.292c-0.102-0.609-0.271-1.26-0.489-1.949C930.854,460.032,931.014,460.682,931.114,461.292z"/>
			<path d="M936.495,320.321c-20.4,43.96-22.562,88.95-7.4,134.55c-15.17-45.59-13.01-90.59,7.392-134.562
				c4.328-9.328,9.29-18.068,14.891-26.208C945.794,302.251,940.824,310.991,936.495,320.321z"/>
			<path d="M898.455,121.631c11.409-0.27,22.819-0.5,34.229-0.67C921.273,121.142,909.864,121.372,898.455,121.631z"/>
			<path d="M841.384,123.341c19.021-0.7,38.05-1.27,57.07-1.71C879.434,122.082,860.404,122.651,841.384,123.341z"/>
			<path d="M842.074,819.071c-0.199,0.041-0.399,0.08-0.602,0.121C841.665,819.141,841.875,819.102,842.074,819.071z"/>
			<path d="M840.324,819.522c-0.18,0.059-0.359,0.129-0.551,0.209C839.955,819.651,840.145,819.581,840.324,819.522z"/>
			<path d="M839.764,819.731c-0.358,0.148-0.71,0.318-1.05,0.51C839.054,820.042,839.404,819.872,839.764,819.731z"/>
			<path d="M762.975,82.122c-15.341,1-30.671,2.11-45.979,3.25c-2.431,0.18-4.86,0.37-7.28,0.55c2.42-0.2,4.84-0.38,7.271-0.56
				C732.304,84.221,747.645,83.111,762.975,82.122z"/>
			<path d="M709.705,85.921c-12.141,0.95-24.271,2.02-36.391,3.14C685.434,87.941,697.564,86.872,709.705,85.921z"/>
			<path d="M657.984,707.881c4.619,0.189,9.238,0.393,13.858,0.609C667.225,708.282,662.604,708.081,657.984,707.881z"/>
			<path d="M646.104,755.821h0.012c-0.649,0.75-1.199,1.391-1.699,1.961C644.904,757.211,645.455,756.571,646.104,755.821z"/>
			<path d="M644.415,757.792c-0.32,0.379-0.631,0.73-0.92,1.061C643.784,758.522,644.074,758.17,644.415,757.792z"/>
			<path d="M630.264,706.711c6.932,0.301,13.86,0.59,20.79,0.881c-6.93-0.281-13.858-0.57-20.79-0.871
				c-0.608-0.027-1.21-0.08-1.84-0.148C629.044,706.641,629.654,706.692,630.264,706.711z"/>
			<path d="M631.915,754.942c3.938,0.238,7.97,0.488,12.108,0.75C639.875,755.442,635.864,755.192,631.915,754.942z"/>
			<path d="M625.125,706.182c0.949,0.102,1.83,0.221,2.67,0.318c-0.84-0.1-1.721-0.209-2.67-0.309V706.182z"/>
			<path d="M626.174,777.022c-5.358,5.59-10.72,11.188-16.05,16.809C615.455,788.211,620.814,782.612,626.174,777.022z"/>
			<path d="M605.225,799.551c-0.601,0.779-1.181,1.57-1.739,2.359C604.044,801.122,604.614,800.331,605.225,799.551z"/>
			<path d="M602.665,803.112c-0.812,1.209-1.57,2.438-2.28,3.68C601.094,805.551,601.854,804.321,602.665,803.112z"/>
			<path d="M597.375,860.012c0.5,1.311,1.04,2.609,1.62,3.898C598.415,862.622,597.875,861.321,597.375,860.012z"/>
			<path d="M597.344,97.062c-0.1,0.09-0.188,0.18-0.278,0.28C597.154,97.231,597.245,97.142,597.344,97.062z"/>
			<path d="M597.794,811.862c-0.38,0.857-0.75,1.729-1.09,2.607C597.044,813.592,597.404,812.721,597.794,811.862z"/>
			<path d="M596.614,98.011c0.131-0.25,0.28-0.479,0.45-0.67C596.895,97.542,596.745,97.761,596.614,98.011z"/>
			<path d="M596.544,857.711c0.26,0.771,0.54,1.539,0.83,2.301C597.084,859.241,596.804,858.481,596.544,857.711z"/>
			<path d="M596.694,814.481c-0.29,0.76-0.58,1.529-0.841,2.311C596.114,816.012,596.395,815.241,596.694,814.481z"/>
			<path d="M596.444,98.401c-0.261,0.67-0.41,1.5-0.5,2.49c-1.102,11.85-2.392,23.68-3.591,35.52
				c1.199-11.84,2.479-23.67,3.58-35.52C596.023,99.901,596.174,99.071,596.444,98.401z"/>
			<path d="M595.194,853.352c0.329,1.199,0.688,2.391,1.09,3.58C595.884,855.75,595.523,854.551,595.194,853.352z"/>
			<path d="M595.594,817.571c-0.199,0.621-0.39,1.25-0.58,1.881C595.194,818.821,595.384,818.192,595.594,817.571z"/>
			<path d="M592.915,839.682c0.279,4.602,1.05,9.182,2.279,13.67c-1.239-4.488-2.021-9.068-2.29-13.67
				c-0.409-6.891,0.25-13.369,1.898-19.471C593.154,826.301,592.504,832.782,592.915,839.682z"/>
			<path d="M591.564,144.301c-0.25,2.63-0.5,5.26-0.74,7.89C591.064,149.562,591.314,146.931,591.564,144.301z"/>
			<path d="M584.014,239.711c-0.6,8.41-1.188,16.82-1.739,25.23C582.824,256.531,583.415,248.122,584.014,239.711z"/>
			<path d="M583.074,751.721c-0.46-6.83-0.979-13.551-1.409-20.25C582.104,738.17,582.614,744.891,583.074,751.721z"/>
			<path d="M582.273,264.941c-0.358,5.61-0.709,11.22-1.051,16.83C581.554,276.161,581.904,270.551,582.273,264.941z"/>
			<path d="M581.395,727.051c-0.051-0.76-0.101-1.51-0.141-2.27c-1.01-18.291-1.91-36.58-2.688-54.871
				c0.788,18.291,1.688,36.58,2.698,54.871C581.304,725.542,581.344,726.301,581.395,727.051z"/>
			<path d="M581.225,281.771c-0.33,5.62-0.649,11.23-0.939,16.84c-1.771,33.43-2.92,66.912-3.8,100.39
				c0.88-33.48,2.028-66.96,3.789-100.4C580.574,292.991,580.884,287.381,581.225,281.771z"/>
			<path d="M577.475,642.471c0.341,9.15,0.699,18.291,1.091,27.432C578.165,660.762,577.804,651.612,577.475,642.471z"/>
			<path d="M576.564,615.032c0.278,9.139,0.58,18.289,0.908,27.43C577.134,633.321,576.834,624.17,576.564,615.032z"/>
			<path d="M575.324,560.131c0.141,9.15,0.32,18.289,0.521,27.432C575.634,578.42,575.464,569.272,575.324,560.131z"/>
		</g>
	</g>
</g>
</svg>
