<?xml version="1.0" encoding="utf-8"?>
<!-- Generator: Adobe Illustrator 16.0.0, SVG Export Plug-In . SVG Version: 6.00 Build 0)  -->
<!DOCTYPE svg PUBLIC "-//W3C//DTD SVG 1.1//EN" "http://www.w3.org/Graphics/SVG/1.1/DTD/svg11.dtd">
<svg version="1.1" id="Layer_1" xmlns="http://www.w3.org/2000/svg" xmlns:xlink="http://www.w3.org/1999/xlink" x="0px" y="0px"
	 width="843.4px" height="844.354px" viewBox="579.379 78.77 843.4 844.354" enable-background="new 579.379 78.77 843.4 844.354"
	 xml:space="preserve">
<g opacity="0.2">
	<g id="XMLID_1_">
		<g>
			<path fill="#FFFFFF" d="M1422.761,243.195c0.062,2.18-0.051,4.49-0.051,7.38c-24.449-25.38-48.459-50.31-72.92-75.71
				c-2.158,2.41-3.908,4.32-5.629,6.27c-8.109,9.2-16.263,18.36-24.461,27.48c-5.052,5.63-10.119,11.24-15.222,16.84
				c-18.358,20.15-36.969,40.07-55.938,59.65c-5.158,5.33-10.359,10.65-15.58,15.93c-3.488,3.53-6.988,7.05-10.5,10.56
				c-5.238,5.23-10.51,10.432-15.809,15.602c-3.603,3.52-7.222,7.02-10.853,10.52c-3.5,3.352-7,6.69-10.52,10.021
				c-1.853,1.75-3.701,3.5-5.562,5.238c-7.432,6.96-14.92,13.83-22.512,20.592c-3.029,2.698-6.078,5.38-9.14,8.04
				c-3.762,3.278-7.541,6.52-11.36,9.738c-1.688,1.42-3.379,2.83-5.078,4.25c-1.41,1.17-2.819,2.34-4.24,3.5
				c-11.819,9.71-23.899,19.09-36.26,28.09c-1.641,1.19-3.281,2.382-4.932,3.552c-4.939,3.528-9.939,7.011-14.979,10.409
				c-1.682,1.142-3.371,2.262-5.061,3.381c-8.461,5.601-17.07,11-25.83,16.198c-1.75,1.04-3.51,2.07-5.279,3.092
				c-3.531,2.04-7.092,4.051-10.67,6.021c-5.611,3.09-11.271,6.08-16.961,8.97c0,0,0,0-0.01,0.012
				c-2.853,1.431-5.701,2.851-8.562,4.229c0,0,0,0.01-0.01,0.01c-2.871,1.392-5.74,2.75-8.621,4.092c0,0.011,0,0.011-0.01,0.011
				c-4.33,2-8.67,3.949-13.039,5.84c-1.461,0.64-2.922,1.26-4.394,1.89c-29.25,12.36-59.459,22.171-90.639,29.511
				c-4.611,1.08-9.221,2.142-13.84,3.159c-2.313,0.512-4.621,1.012-6.932,1.5c-4.631,0.98-9.261,1.932-13.898,2.841
				c-17.391,3.399-34.881,6.262-52.451,8.421c-2.34,0.29-4.688,0.568-7.039,0.829c-3.399,0.381-6.82,0.739-10.229,1.069
				c-0.222,0.021-0.439,0.04-0.67,0.062c-2.238,0.21-4.488,0.409-6.729,0.601c-8.43,0.71-16.871,1.37-25.311,2
				c-0.433,0.04-0.859,0.069-1.291,0.101c-19.988,1.479-40,2.771-60,4.051c-17.328,1.101-34.658,2.181-51.979,3.341
				c-0.778,0.05-1.551,0.119-2.34,0.18c-0.311,0.03-0.631,0.062-0.951,0.091c-0.5,0.039-1,0.09-1.51,0.13
				c-0.039,0.011-0.09,0.011-0.141,0.021c-0.539,0.04-1.091,0.09-1.658,0.141v0.011h-0.013c-0.09,1.818-0.278,3.29-0.229,4.75
				c0.561,15.989,1.119,31.971,1.689,47.948c1.688,47.961,3.391,95.9,5.119,143.86c0.069,1.989,0.17,3.989,0.278,5.979v0.011
				c0.111,1.989,0.23,3.989,0.361,5.979v0.011c0.25,3.989,0.487,7.979,0.619,11.979c0.02,0.76,0.1,1.41,0.25,1.96
				c0,0.01,0,0.01,0,0.01c0.067,0.28,0.159,0.53,0.278,0.75c0.279,0.57,0.699,0.99,1.32,1.28c0.609,0.29,1.398,0.45,2.439,0.489
				c28.77,1.24,57.539,2.58,86.311,3.91c4.799,0.229,9.6,0.449,14.391,0.659c28.771,1.341,57.55,2.631,86.318,3.75
				c0.012,0,0.012,0,0.012,0c14.39,0.562,28.771,1.091,43.158,1.551c23.07,0.739,46.15,1.301,69.23,1.659
				c0.02,0.011,0.039,0.011,0.061,0c64.85,1.051,129.709,0.619,194.539-1.25c6.361-0.181,12.711-0.381,19.07-0.591
				c24.358-0.81,48.721-1.79,73.069-2.869c33.568-1.489,67.13-3.171,100.689-4.83c19.299-0.96,38.608-1.898,57.91-2.811
				c3.108-0.149,6.209-0.33,9.317-0.521c0.199-0.012,0.392-0.029,0.58-0.04c4.58-0.29,9.182-0.62,13.83-0.96
				c0.23-0.021,0.459-0.029,0.689-0.052c4.77-0.35,9.59-0.71,14.5-1.04c0,0.052-0.011,0.103-0.011,0.15
				c-0.102,1.55-0.188,3.061-0.278,4.561c-0.103,1.689-0.201,3.352-0.302,5c-0.09,1.511-0.188,3-0.288,4.479
				c-0.121,1.529-0.24,3.05-0.382,4.569c-3.25,34.818-6.602,69.631-9.811,104.448c-0.021,0.21-0.052,0.421-0.07,0.61
				c-0.08,0.47-0.18,0.89-0.317,1.25c-0.24,0.64-0.59,1.109-1.07,1.47c-0.68,0.48-1.59,0.74-2.84,0.853
				c-32.67,2.987-65.291,6.5-97.99,9.05c-4.52,0.359-9.051,0.7-13.58,1.05c-9.051,0.689-18.1,1.35-27.16,1.979
				c-22.641,1.58-45.301,2.948-67.971,3.96c-47.27,2.108-94.568,3.761-141.869,4.601c-5.25,0.09-10.51,0.18-15.76,0.25
				c-45.67,0.62-91.35,0.36-137-0.88c-5.5-0.141-10.99-0.313-16.48-0.48c-5.35-0.17-10.698-0.357-16.051-0.56
				c-17.199-0.641-34.389-1.431-51.578-2.36c-7.051-0.38-14.092-0.778-21.141-1.21c-7.041-0.43-14.08-0.87-21.131-1.34
				c-7.039-0.46-14.08-0.938-21.119-1.438c-21.121-1.472-42.24-3.069-63.35-4.67c-14.07-1.069-28.15-2.142-42.23-3.189
				c-4.92-0.36-9.85-0.811-14.77-1.311c-10.82-1.102-21.621-2.41-32.441-3.472c-1.67-0.16-2.709-0.63-3.309-1.62
				c-0.121-0.188-0.224-0.408-0.313-0.647c-0.08-0.24-0.147-0.5-0.209-0.78c-0.061-0.29-0.1-0.601-0.131-0.93
				c-0.92-10.29-1.859-20.57-2.812-30.853c-0.948-10.278-1.907-20.55-2.858-30.83c-0.01-0.01,0-0.01,0-0.01
				c-1.892-20.56-3.74-41.12-5.369-61.71c-5.6-70.61-8.33-141.37-9.43-212.18c-0.063-3.563-0.103-7.131-0.121-10.69
				c-0.101-15.93,0.069-31.95,0.069-48.45c6.302-0.29,12.431-0.51,18.552-0.857c9.229-0.53,18.459-1.04,27.698-1.54
				c11.67-0.63,23.351-1.25,35.029-1.92c16.021-0.921,32.029-1.933,48.021-3.171c9.639-0.75,19.27-1.569,28.879-2.489
				c0.371-0.03,0.75-0.07,1.121-0.11c5.479-0.52,10.949-1.08,16.408-1.67c47.131-5.108,93.852-12.84,139.688-25.93
				c45.59-13.021,87.91-32.48,127.642-57c3.448-2.13,6.891-4.3,10.311-6.51c11.951-7.73,23.682-15.91,35.189-24.512
				c1.762-1.318,3.521-2.64,5.271-3.97c1.91-1.46,3.812-2.92,5.709-4.39c4.17-3.24,8.312-6.521,12.41-9.842
				c12.631-10.198,24.951-20.77,37.051-31.59c4.449-3.97,8.869-7.979,13.26-12.04c6.841-6.27,13.609-12.63,20.33-19.04
				c5.521-5.25,11-10.54,16.459-15.85c8.58-8.35,17.093-16.76,25.541-25.24c5.631-5.65,11.24-11.33,16.812-17.03
				c13.938-14.25,27.721-28.66,41.369-43.19c5.471-5.82,10.91-11.65,16.342-17.5c4.119-4.44,8.229-8.89,12.34-13.36
				c6.689-7.28,13.359-14.58,20.01-21.9c0.391-0.43,0.76-0.87,1.199-1.41c0.221-0.27,0.451-0.56,0.711-0.88c0-0.01,0-0.01,0.01-0.01
				c0.26-0.32,0.562-0.68,0.892-1.08h-0.013c-5.17-4.96-10.34-9.91-15.52-14.88c-11.65-11.18-23.369-22.42-35.359-33.91
				c-0.01,0.01-0.01,0.01-0.01,0c-2.66-2.57-5.34-5.13-8.031-7.71c-1.35-1.28-2.699-2.58-4.059-3.89
				c9.398,0.57,17.559,0.91,25.709,1.59c33.85,2.85,67.701,5.77,101.541,8.75c4.639,0.41,9.279,0.93,13.91,1.45
				c2.318,0.26,4.629,0.52,6.947,0.76c2.319,0.25,4.643,0.48,6.961,0.68c0.569,0.05,1.061,0.14,1.479,0.27
				c0.56,0.18,1.011,0.43,1.351,0.75c0.17,0.16,0.33,0.34,0.459,0.55c0.451,0.7,0.67,1.64,0.791,2.85
				c1.852,19.05,4.102,38.08,5.75,57.15c0.959,11.01,1.858,22.03,2.739,33.05c0.289,3.68,0.58,7.35,0.869,11.02
				c0.57,7.35,1.142,14.7,1.711,22.05c0.56,7.34,1.13,14.69,1.699,22.04C1422.71,242.215,1422.742,242.695,1422.761,243.195z"/>
			<path d="M1307.611,910.956c32.699-2.55,65.319-6.063,97.99-9.05c1.25-0.11,2.159-0.37,2.84-0.853c-0.67,0.49-1.59,0.75-2.84,0.86
				c-32.671,2.99-65.291,6.5-97.99,9.05c-4.521,0.351-9.051,0.7-13.58,1.04C1298.563,911.656,1303.091,911.315,1307.611,910.956z"/>
			<path d="M1313.742,139.155h0.01c-0.33,0.4-0.631,0.76-0.891,1.08C1313.121,139.905,1313.412,139.555,1313.742,139.155z"/>
			<path d="M1312.852,140.245c-0.261,0.32-0.488,0.61-0.709,0.88C1312.352,140.855,1312.591,140.565,1312.852,140.245z"/>
			<path d="M1290.932,164.435c-4.109,4.47-8.222,8.92-12.341,13.36C1282.71,173.355,1286.822,168.896,1290.932,164.435z"/>
			<path d="M1262.861,90.365c11.99,11.49,23.711,22.729,35.358,33.91C1286.572,113.115,1274.852,101.875,1262.861,90.365z"/>
			<path d="M1254.822,82.655c2.688,2.58,5.369,5.14,8.029,7.71C1260.182,87.815,1257.511,85.245,1254.822,82.655z"/>
			<path d="M1262.251,195.295c-13.649,14.53-27.43,28.94-41.369,43.19C1234.822,224.235,1248.602,209.825,1262.251,195.295z"/>
			<path d="M1220.882,238.485c-5.569,5.7-11.182,11.38-16.811,17.03C1209.701,249.865,1215.302,244.185,1220.882,238.485z"/>
			<path d="M1198.902,917.956c-47.271,2.109-94.57,3.76-141.881,4.6c-5.25,0.091-10.5,0.17-15.75,0.24
				c5.25-0.07,10.51-0.16,15.76-0.25c47.301-0.84,94.602-2.49,141.871-4.601c22.67-1.012,45.328-2.381,67.969-3.96
				C1244.23,915.565,1221.572,916.945,1198.902,917.956z"/>
			<path d="M1148.072,381.605c3.061-2.66,6.109-5.342,9.139-8.04C1154.182,376.265,1151.132,378.945,1148.072,381.605z"/>
			<path d="M1131.632,395.595c1.699-1.42,3.39-2.83,5.078-4.25C1135.021,392.765,1133.332,394.185,1131.632,395.595z"/>
			<path d="M1091.132,427.185c12.359-9,24.439-18.38,36.261-28.09C1115.563,408.805,1103.492,418.185,1091.132,427.185z"/>
			<path d="M1071.223,441.145c5.038-3.397,10.038-6.88,14.979-10.408C1081.261,434.275,1076.261,437.746,1071.223,441.145z"/>
			<path d="M1040.332,460.725c8.76-5.198,17.369-10.6,25.83-16.198C1057.701,450.125,1049.091,455.536,1040.332,460.725z"/>
			<path d="M1024.382,469.835c3.578-1.97,7.14-3.979,10.67-6.021c-3.53,2.051-7.092,4.061-10.67,6.028
				c-5.61,3.09-11.271,6.08-16.961,8.96C1013.111,475.916,1018.771,472.925,1024.382,469.835z"/>
			<path d="M998.852,483.045c2.858-1.38,5.711-2.8,8.561-4.229C1004.572,480.255,1001.722,481.666,998.852,483.045z"/>
			<path d="M990.222,487.145c2.88-1.34,5.75-2.698,8.619-4.09C995.98,484.445,993.111,485.815,990.222,487.145z"/>
			<path d="M977.171,492.996c4.369-1.891,8.711-3.84,13.039-5.84C985.893,489.166,981.541,491.116,977.171,492.996z"/>
			<path d="M904.271,921.916c-5.49-0.141-10.99-0.311-16.48-0.48C893.281,921.605,898.771,921.775,904.271,921.916z"/>
			<path d="M882.143,524.395c31.18-7.34,61.391-17.147,90.641-29.51c-29.25,12.36-59.471,22.182-90.641,29.521
				c-4.609,1.079-9.222,2.13-13.841,3.147C872.921,526.536,877.531,525.475,882.143,524.395z"/>
			<path d="M847.472,531.895c4.642-0.908,9.271-1.857,13.898-2.84C856.742,530.036,852.111,530.985,847.472,531.895z"/>
			<path d="M871.742,920.875c-17.201-0.641-34.391-1.42-51.58-2.351c-7.051-0.382-14.09-0.79-21.141-1.222
				c7.051,0.432,14.09,0.83,21.141,1.21C837.352,919.445,854.541,920.235,871.742,920.875z"/>
			<path d="M787.98,541.145c2.352-0.26,4.7-0.538,7.041-0.828C792.671,540.605,790.332,540.885,787.98,541.145z"/>
			<path d="M777.893,915.965c7.051,0.47,14.09,0.91,21.129,1.34C791.98,916.885,784.941,916.435,777.893,915.965z"/>
			<path d="M777.751,542.215c3.41-0.33,6.83-0.688,10.229-1.07C784.572,541.536,781.171,541.885,777.751,542.215z"/>
			<path d="M770.352,542.875c2.239-0.19,4.489-0.391,6.729-0.601c-2.24,0.221-4.49,0.42-6.74,0.608
				c-8.43,0.71-16.869,1.37-25.301,1.99C753.48,544.246,761.921,543.585,770.352,542.875z"/>
			<path d="M756.771,914.525c7.039,0.5,14.08,0.979,21.119,1.438C770.852,915.505,763.813,915.025,756.771,914.525z"/>
			<path d="M683.751,549.025c20-1.279,40.01-2.569,60-4.052C723.761,546.456,703.761,547.755,683.751,549.025z"/>
			<path d="M651.191,906.666c14.08,1.05,28.16,2.12,42.229,3.189c-14.069-1.069-28.149-2.142-42.229-3.182
				c-4.931-0.358-9.851-0.818-14.771-1.318C641.341,905.855,646.271,906.305,651.191,906.666z"/>
			<path d="M631.771,552.366c17.319-1.16,34.649-2.24,51.979-3.341c-17.328,1.101-34.658,2.181-51.988,3.351
				c-0.771,0.05-1.541,0.109-2.33,0.17C630.222,552.485,630.992,552.416,631.771,552.366z"/>
			<path d="M626.972,552.765c0.511-0.04,1.011-0.09,1.511-0.13C627.992,552.675,627.492,552.725,626.972,552.765z"/>
			<path d="M625.171,552.925c0.57-0.05,1.119-0.1,1.66-0.14c-0.541,0.05-1.09,0.1-1.66,0.147V552.925z"/>
			<path d="M600.361,899.616c0.09,0.239,0.188,0.46,0.311,0.647C600.552,900.076,600.451,899.855,600.361,899.616z"/>
			<path d="M600.152,898.835c0.059,0.28,0.129,0.54,0.209,0.78C600.271,899.375,600.201,899.116,600.152,898.835z"/>
			<path d="M594.352,836.225c0.95,10.28,1.909,20.552,2.858,30.83C596.251,856.775,595.291,846.496,594.352,836.225z"/>
			<path d="M588.98,774.505c1.631,20.59,3.479,41.15,5.371,61.71c-1.9-20.56-3.75-41.12-5.382-61.7
				c-5.6-70.607-8.317-141.357-9.43-212.18c-0.051-3.561-0.09-7.13-0.109-10.7c0.021,3.562,0.062,7.13,0.119,10.69
				C580.652,633.135,583.382,703.895,588.98,774.505z"/>
		</g>
	</g>
</g>
</svg>
