<?xml version="1.0" encoding="utf-8"?>
<!-- Generator: Adobe Illustrator 16.0.0, SVG Export Plug-In . SVG Version: 6.00 Build 0)  -->
<!DOCTYPE svg PUBLIC "-//W3C//DTD SVG 1.1//EN" "http://www.w3.org/Graphics/SVG/1.1/DTD/svg11.dtd">
<svg version="1.1" id="Layer_1" xmlns="http://www.w3.org/2000/svg" xmlns:xlink="http://www.w3.org/1999/xlink" x="0px" y="0px"
	 width="851.82px" height="851.786px" viewBox="575.251 74.833 851.82 851.786"
	 enable-background="new 575.251 74.833 851.82 851.786" xml:space="preserve">
<g opacity="0.2">
	<g id="XMLID_1_">
		<g>
			<path fill="#FFFFFF" d="M1426.881,465.376c0.58,56.1-0.17,112.209-2.188,168.299c-1.031,28.59-2.603,57.16-4.131,85.73
				c-0.513,9.52-1.021,19.039-1.5,28.568c-0.013,0.281-0.029,0.563-0.062,0.852c-0.01,0.148-0.031,0.301-0.051,0.449
				c-0.039,0.301-0.08,0.609-0.119,0.949c-0.041,0.33-0.09,0.691-0.142,1.08c-0.021,0.201-0.039,0.4-0.069,0.611
				c-278.47,18.26-556.74,18.27-835.729-0.021c-1.271-22.869-3.108-44.971-3.631-67.1c0-0.211-0.01-0.43-0.01-0.641
				c-0.83-35.684-1.729-71.359-2.479-107.053c-0.093-4.486-0.183-8.971-0.271-13.459c-0.609-31.398-1.07-62.811-1.221-94.221
				c-0.062-12.291-0.021-24.58,0.09-36.871c0.01-0.33,0.01-0.658,0.01-0.988c0.121-12.33,0.33-24.669,0.631-37
				c0.012-0.409,0.021-0.819,0.029-1.229c0.301-12.34,0.691-24.68,1.15-37.01c0.02-0.34,0.028-0.67,0.041-0.99
				c0.309-8.12,0.659-16.229,1.039-24.34c0.211-4.431,0.43-8.86,0.657-13.29c0.441-8.47,0.922-16.94,1.433-25.41
				c0.77-12.71,1.621-25.41,2.561-38.1c3.311-44.9,7.5-89.73,11.41-134.58c0.561-6.41,1.119-12.81,1.66-19.22
				c0.059-0.69,0.16-1.3,0.309-1.82c0.041-0.13,0.092-0.26,0.131-0.38c0.103-0.24,0.211-0.46,0.342-0.66
				c0.14-0.2,0.289-0.37,0.47-0.54c0.35-0.31,0.801-0.56,1.36-0.73c0.42-0.12,0.908-0.21,1.479-0.26
				c5.76-0.5,11.521-1.01,17.278-1.53c40.351-3.61,80.671-7.54,121.062-10.52c100.41-7.42,201.021-10.41,301.67-8.61
				c69.109,1.24,138.209,4.11,207.24,7.7c45.709,2.37,91.289,7.28,136.92,11.1c5.812,0.48,11.58,1.4,17.379,1.84
				c1.441,0.1,2.441,0.43,3.111,1.1c0.59,0.58,0.93,1.42,1.1,2.59c0.021,0.17,0.039,0.35,0.062,0.53
				c0.641,6.72,1.311,13.43,1.989,20.13c0.681,6.71,1.369,13.42,2.052,20.13c1.35,13.42,2.66,26.84,3.729,40.29
				c2.141,27.01,4.129,54.05,5.811,81.11c0.552,9.02,1.08,18.04,1.562,27.06c0.51,9.6,1,19.21,1.449,28.82
				c1.35,28.83,2.438,57.68,3.229,86.529C1426.284,424.646,1426.672,445.005,1426.881,465.376z M1376.762,706.515
				c8.439-190.777,5.65-380.648-10.641-570.858c-178.959-14.9-357.639-18.86-536.389-11.88c-30.41,1.19-60.83,2.7-91.25,4.52
				c-11.42,0.69-22.83,1.42-34.25,2.19c-15.211,1.03-30.433,2.14-45.644,3.33c-7.606,0.59-15.219,1.21-22.83,1.84v0.01
				c-16.276,190.36-19.067,380.209-10.619,570.848C875.922,718.248,1126.152,718.255,1376.762,706.515z"/>
			<path d="M1425.732,404.277c0.562,20.358,0.949,40.728,1.148,61.099c-0.209-20.371-0.6-40.729-1.16-61.099
				c-0.789-28.852-1.879-57.7-3.229-86.53C1423.854,346.577,1424.932,375.427,1425.732,404.277z"/>
			<path d="M1420.563,719.408c-0.512,9.52-1.012,19.039-1.489,28.566c-0.021,0.281-0.039,0.564-0.07,0.854
				c0.031-0.289,0.051-0.57,0.063-0.854C1419.542,738.447,1420.051,728.925,1420.563,719.408z"/>
			<path d="M1418.954,749.277c-0.031,0.301-0.07,0.607-0.121,0.947C1418.874,749.886,1418.913,749.578,1418.954,749.277z"/>
			<path d="M1418.833,750.226c-0.039,0.33-0.09,0.689-0.14,1.08C1418.743,750.917,1418.792,750.556,1418.833,750.226z"/>
			<path d="M1413.682,180.757c2.15,27.01,4.131,54.05,5.801,81.11c-1.682-27.06-3.67-54.1-5.811-81.11
				c-1.068-13.45-2.381-26.87-3.729-40.29C1411.301,153.887,1412.614,167.307,1413.682,180.757z"/>
			<path d="M1407.893,120.337c0.681,6.71,1.381,13.42,2.051,20.13C1409.262,133.757,1408.573,127.047,1407.893,120.337z"/>
			<path d="M1404.743,97.087c0.59,0.57,0.93,1.41,1.1,2.59C1405.672,98.507,1405.333,97.667,1404.743,97.087z"/>
			<path fill="#FFFFFF" d="M1365.454,527.318c-37.9,0-75.41,0-113.701,0c-1.16-24.121-5.279-47.73-12.357-70.854
				c-1.69-5.51-3.541-10.979-5.563-16.43c-2.42-6.539-5.08-13.039-7.99-19.5c32.451-19.07,64.691-38.01,97.291-57.16
				c5.699,10.43,10.82,20.97,15.353,31.65c0.799,1.88,1.58,3.76,2.34,5.64c0.809,2.01,1.6,4.03,2.356,6.05
				c0.73,1.892,1.433,3.78,2.111,5.67c1.5,4.16,2.92,8.34,4.25,12.54C1359.932,457.697,1365.152,491.726,1365.454,527.318z"/>
			<path d="M1345.292,412.387c1.51,4.16,2.92,8.34,4.25,12.54C1348.211,420.727,1346.792,416.547,1345.292,412.387z"/>
			<path d="M1314.354,914.126c28.857-2.541,57.681-5.561,86.527-8.16c1.551-0.141,2.65-0.43,3.432-1.02
				c-0.778,0.592-1.881,0.891-3.432,1.029C1372.034,908.568,1343.211,911.585,1314.354,914.126z"/>
			<path d="M1340.823,400.667c0.811,2.01,1.6,4.03,2.358,6.05C1342.422,404.697,1341.631,402.677,1340.823,400.667z"/>
			<path d="M1323.143,363.377c5.699,10.43,10.818,20.98,15.34,31.65c-4.528-10.682-9.649-21.222-15.352-31.65H1323.143z"/>
			<path d="M1310.631,343.837h-0.01c-0.65-1.66-1.5-3.438-2.521-5.33C1309.131,340.396,1309.982,342.177,1310.631,343.837z"/>
			<path d="M1305.092,333.417c0.57,0.88,1.103,1.75,1.603,2.6C1306.182,335.167,1305.652,334.297,1305.092,333.417z"/>
			<path d="M1300.693,326.957c0.47,0.64,0.921,1.27,1.351,1.9C1301.604,328.227,1301.152,327.597,1300.693,326.957z"/>
			<path d="M1292.704,915.925c7.219-0.559,14.438-1.17,21.649-1.799C1307.143,914.765,1299.922,915.369,1292.704,915.925z"/>
			<path d="M1298.542,324.047c0.5,0.65,0.979,1.312,1.451,1.95C1299.523,325.357,1299.034,324.697,1298.542,324.047z"/>
			<path d="M1292.954,316.967c0.569,0.69,1.129,1.38,1.67,2.062C1294.083,318.347,1293.523,317.657,1292.954,316.967z"/>
			<path d="M1289.443,312.777c0.601,0.698,1.199,1.41,1.777,2.108C1290.631,314.188,1290.042,313.477,1289.443,312.777z"/>
			<path fill="#FFFFFF" d="M1190.273,230.867c23.197,7.81,70.789,48.71,99.171,81.91c0.6,0.698,1.188,1.41,1.776,2.108
				c0.592,0.7,1.16,1.392,1.73,2.08c0.57,0.69,1.131,1.38,1.67,2.062c1.371,1.698,2.68,3.38,3.92,5.02
				c0.49,0.65,0.98,1.312,1.451,1.95c0.24,0.32,0.469,0.64,0.699,0.96c0.461,0.64,0.91,1.27,1.35,1.9
				c1.102,1.56,2.121,3.078,3.051,4.56c0.562,0.88,1.09,1.75,1.603,2.6c0.5,0.842,0.979,1.671,1.41,2.49
				c1.02,1.891,1.866,3.67,2.52,5.33c-31.67,18.42-63.42,36.91-94.688,55.11c-10.189-14.03-19.189-27.79-29.609-40.37
				c-1.74-2.102-3.531-4.16-5.361-6.182c-1.219-1.35-2.448-2.688-3.709-4.01c-1.881-1.99-3.791-3.95-5.721-5.89
				c-1.279-1.312-2.57-2.602-3.869-3.87c-3.891-3.87-7.819-7.68-11.688-11.54c-3.609-3.61-7.972-6.47-11.771-9.91
				c-0.147-0.13-0.288-0.318-0.42-0.54c-0.52-0.88-0.799-2.27-0.549-3.028c0.021-0.062,0.049-0.12,0.08-0.182
				c0.709-1.28,1.42-2.55,2.139-3.818c2.15-3.812,4.33-7.61,6.511-11.4c2.19-3.78,4.381-7.57,6.563-11.36
				c0.729-1.26,1.459-2.52,2.18-3.79c7.761-13.56,15.479-27.15,23.189-40.73c1.09-1.92,2.16-3.84,3.221-5.75
				C1188.172,234.657,1189.232,232.747,1190.273,230.867z"/>
			<path d="M1165.762,923.386c5.32-0.18,10.65-0.381,15.971-0.6C1176.413,923.005,1171.083,923.208,1165.762,923.386z"/>
			<path fill="#FFFFFF" d="M1012.922,188.427c25.811-8.19,133.15,13.67,156.699,31.99c-7.771,13.42-15.58,26.88-23.35,40.36
				c-4.82,8.36-9.632,16.73-14.513,25.25c-2.938,5.12-5.897,10.29-8.92,15.54c-33.699-21.73-70.389-35.68-109.92-42.48
				C1012.922,235.247,1012.922,211.807,1012.922,188.427z"/>
			<path d="M1165.762,923.386c-2.67,0.09-5.33,0.17-7.988,0.25c-8.08,0.23-16.149,0.449-24.229,0.65
				c8.08-0.211,16.149-0.432,24.229-0.66C1160.432,923.546,1163.092,923.466,1165.762,923.386z"/>
			<path d="M1154.693,379.337c-0.352-0.25-0.7-0.51-1.041-0.76c-0.682,0.45-1.368,0.898-2.051,1.35
				c0.683-0.45,1.369-0.898,2.051-1.358C1153.993,378.827,1154.342,379.087,1154.693,379.337z"/>
			<path fill="#FFFFFF" d="M1154.693,379.337c-3.381,6.8-6.723,13.62-10.149,20.39c-15.621,30.822-31.24,61.632-46.871,92.451
				c-15.619,30.811-31.26,61.621-46.897,92.42c-10.562,20.771-33.92,32.191-58.369,28.74c-7.531-1.07-14.711-3.9-21.07-8.049
				c-0.871-0.57-1.721-1.16-2.561-1.771c-0.83-0.619-1.65-1.25-2.449-1.91c-0.541-0.439-1.063-0.891-1.58-1.35
				c-0.781-0.689-1.531-1.4-2.281-2.131c-7.629-7.549-13.17-17.26-15.309-27.891c-0.224-1.092-0.41-2.182-0.58-3.262
				c-1-6.539-1-12.83,0.039-18.777c0.08-0.434,0.16-0.859,0.24-1.291c0.18-0.852,0.368-1.689,0.577-2.529
				c0.224-0.84,0.451-1.68,0.711-2.5c0.263-0.82,0.539-1.641,0.843-2.439c0.157-0.41,0.309-0.811,0.469-1.211
				c0.33-0.799,0.67-1.59,1.041-2.379c0.549-1.18,1.16-2.35,1.809-3.49c0.441-0.76,0.894-1.51,1.371-2.25c0-0.01,0-0.01,0-0.01
				c0.48-0.74,0.98-1.479,1.5-2.199c0.529-0.74,1.08-1.461,1.641-2.172c0.58-0.709,1.17-1.408,1.779-2.1
				c1.23-1.391,2.551-2.74,3.959-4.049c11.621-10.814,24.74-20.07,37.603-29.471c49.721-36.393,99.6-72.552,149.43-108.792
				c0.66-0.48,1.34-0.94,2.021-1.392c0.681-0.45,1.369-0.898,2.052-1.35C1153.993,378.827,1154.342,379.087,1154.693,379.337z"/>
			<path d="M1085.083,925.376c8.08-0.16,16.149-0.33,24.229-0.51C1101.232,925.046,1093.163,925.216,1085.083,925.376z"/>
			<path fill="#FFFFFF" d="M987.881,189.457c0,22.58,0,44.36,0,66.78c-21.68-1.27-43.25-1.19-64.33,3.08
				c-20.969,4.24-41.58,10.24-63.1,15.67c-5.32-9.27-11.26-19.85-17.459-30.27c-1.32-2.22-0.99-3.52,0.08-4.57
				c0.08-0.08,0.147-0.15,0.229-0.22c0.551-0.479,1.262-0.92,2.012-1.38c20.027-12.37,41.068-22.65,63.188-30.68
				c23.871-8.65,48.371-14.65,73.58-17.76C983.874,189.887,985.653,189.707,987.881,189.457z"/>
			<path d="M963.893,926.619c-43.989,0.027-87.971-0.951-131.91-2.98c43.939,2.02,87.921,3,131.91,2.971
				c8.078,0,16.158-0.029,24.238-0.061C980.051,926.585,971.971,926.607,963.893,926.619z"/>
			<path d="M843.301,239.927c-0.08,0.07-0.147,0.14-0.229,0.22C843.143,240.077,843.221,240.007,843.301,239.927z"/>
			<path fill="#FFFFFF" d="M821.711,254.657c6.121,10.72,12.09,21.16,18.121,31.72c-41.09,21.17-74.57,50.23-101.75,87.42
				c-4.291-2.438-8.471-4.82-13.08-7.438c14.369-26.33,31.48-50.021,51.49-71.3c2.108-2.24,4.25-4.46,6.42-6.65
				C794.854,276.377,807.773,265.137,821.711,254.657z"/>
			<path d="M793.063,921.578c12.961,0.77,25.939,1.461,38.92,2.061C819.002,923.046,806.023,922.357,793.063,921.578z"/>
			<path d="M782.913,288.407c-2.17,2.19-4.31,4.41-6.42,6.65C778.604,292.817,780.743,290.597,782.913,288.407z"/>
			<path d="M717.422,389.146c0.82,0.488,1.641,0.97,2.449,1.46C719.051,390.117,718.243,389.637,717.422,389.146z"/>
			<path fill="#FFFFFF" d="M705.752,432.765c-9.711,24.014-16.131,49-19.16,75.014c-0.68,5.76-1.188,11.58-1.529,17.438
				c-1.459-7.061-1.092-18.641,0.562-32.301c0.061-0.51,0.119-1.02,0.188-1.529c0.119-0.891,0.229-1.791,0.359-2.688
				c0.049-0.4,0.102-0.813,0.16-1.223c0.17-1.188,0.35-2.396,0.529-3.617c0-0.014,0-0.021,0.01-0.029
				c0.17-1.121,0.34-2.262,0.531-3.4c0.389-2.471,0.817-4.99,1.289-7.521c0.2-1.119,0.409-2.25,0.631-3.391
				c0.397-2.139,0.83-4.299,1.27-6.469c0.182-0.859,0.359-1.73,0.551-2.59c0.931-4.451,1.949-8.932,3.029-13.371
				c0.221-0.91,0.449-1.83,0.67-2.74c0.34-1.359,0.689-2.719,1.039-4.08c0.5-1.93,1.012-3.85,1.531-5.75
				c1.67-6.068,3.43-11.959,5.26-17.509c0.33-1.01,0.66-2.01,0.99-2.99c1.18-3.448,2.369-6.738,3.58-9.84
				c0.4-1.01,0.789-2,1.188-2.96c2.148-5.25,4.33-9.85,6.488-13.56c0.853,0.51,1.683,1,2.5,1.49c0.82,0.488,1.631,0.97,2.451,1.46
				c1.641,0.979,3.299,1.979,5.08,3.04C717.542,406.387,711.143,419.427,705.752,432.765z"/>
			<path d="M708.432,401.217c-0.397,0.96-0.789,1.95-1.188,2.96C707.643,403.167,708.034,402.177,708.432,401.217z"/>
			<path d="M703.663,414.017c-0.33,0.98-0.66,1.98-0.99,2.99C703.002,415.997,703.333,414.997,703.663,414.017z"/>
			<path d="M697.413,434.515c-0.521,1.9-1.029,3.82-1.529,5.75C696.381,438.335,696.893,436.417,697.413,434.515z"/>
			<path d="M694.842,444.345c-0.221,0.91-0.449,1.83-0.67,2.74C694.393,446.175,694.614,445.255,694.842,444.345z"/>
			<path d="M689.323,469.515c-0.22,1.143-0.431,2.271-0.63,3.393C688.893,471.777,689.104,470.648,689.323,469.515z"/>
			<path d="M687.403,480.425c-0.189,1.143-0.359,2.281-0.529,3.4C687.034,482.708,687.211,481.568,687.403,480.425z"/>
			<path d="M686.864,483.857c-0.183,1.221-0.361,2.432-0.531,3.617C686.502,486.289,686.672,485.078,686.864,483.857z"/>
			<path d="M686.172,488.697c-0.131,0.898-0.24,1.801-0.359,2.688C685.922,490.505,686.042,489.607,686.172,488.697z"/>
			<path d="M685.624,492.917c-1.65,13.66-2.021,25.24-0.562,32.301c0,0.01,0,0.029,0,0.039
				C683.592,518.208,683.961,506.607,685.624,492.917z"/>
			<path d="M619.614,907.447c-6.41-0.578-12.82-1.148-19.222-1.723c-0.948-0.09-2.278-0.896-3.172-1.816
				c0.894,0.92,2.224,1.729,3.172,1.811C606.792,906.289,613.204,906.869,619.614,907.447z"/>
			<path fill="#FFFFFF" d="M637.124,860.908c2.858,17.77,18.24,31.41,36.17,32.066c13.188,0.49,23.969-7.719,26.959-20.527
				c2.644-11.328-1.93-23.148-10.34-31.473c-0.199-0.209-0.42-0.42-0.64-0.629c-0.223-0.199-0.44-0.398-0.659-0.607
				c-1.111-1.014-2.281-1.949-3.5-2.83c-0.24-0.184-0.49-0.354-0.74-0.521c-0.49-0.34-0.99-0.67-1.51-0.988
				c-3.07-1.91-6.41-3.41-9.933-4.391c-0.59-0.16-1.18-0.311-1.77-0.451c-2.391-0.529-4.85-0.818-7.35-0.84
				C646.881,829.585,634.432,844.136,637.124,860.908z M587.042,804.876c276.18,21.859,551.721,21.85,827.92-0.01
				c-0.479,6.389-0.818,12.469-1.41,18.52c-0.938,9.699-1.908,19.393-2.869,29.08c-0.647,6.473-1.289,12.932-1.92,19.393
				c-0.949,9.688-1.891,19.391-2.791,29.09c-0.18,2.01-0.647,3.25-1.658,4c-0.778,0.59-1.881,0.881-3.432,1.02
				c-28.851,2.602-57.67,5.621-86.529,8.16c-7.209,0.631-14.43,1.24-21.647,1.801c-2.41,0.18-4.812,0.359-7.221,0.539
				c-34.552,2.531-69.132,4.881-103.75,6.32c-5.32,0.221-10.65,0.42-15.972,0.6c-2.67,0.08-5.33,0.16-7.989,0.24
				c-8.08,0.23-16.148,0.451-24.229,0.66c-8.07,0.211-16.15,0.396-24.229,0.58c-8.08,0.18-16.148,0.35-24.229,0.51
				c-32.32,0.621-64.642,1.021-96.951,1.17c-8.08,0.031-16.16,0.061-24.237,0.061c-43.99,0.029-87.972-0.949-131.91-2.971
				c-12.98-0.6-25.961-1.289-38.92-2.059c-12.972-0.781-25.939-1.65-38.9-2.611c-44.891-3.318-89.721-7.469-134.549-11.52
				c-6.41-0.58-12.82-1.16-19.222-1.73c-0.948-0.08-2.278-0.889-3.172-1.811c-0.539-0.549-0.907-1.143-0.959-1.629
				c-3.229-31.473-6.198-62.973-9.211-94.449C586.982,807.027,587.042,806.216,587.042,804.876z"/>
		</g>
	</g>
</g>
</svg>
