<?xml version="1.0" encoding="utf-8"?>
<!-- Generator: Adobe Illustrator 16.0.0, SVG Export Plug-In . SVG Version: 6.00 Build 0)  -->
<!DOCTYPE svg PUBLIC "-//W3C//DTD SVG 1.1//EN" "http://www.w3.org/Graphics/SVG/1.1/DTD/svg11.dtd">
<svg version="1.1" id="Layer_1" xmlns="http://www.w3.org/2000/svg" xmlns:xlink="http://www.w3.org/1999/xlink" x="0px" y="0px"
	 width="2000px" height="1000px" viewBox="0 0 2000 1000" enable-background="new 0 0 2000 1000" xml:space="preserve">
<g>
	
		<line fill="none" stroke="#7F4FD0" stroke-width="7" stroke-linecap="round" stroke-linejoin="round" stroke-miterlimit="10" x1="350.235" y1="198.721" x2="323.658" y2="173.794"/>
	
		<line fill="none" stroke="#7F4FD0" stroke-width="7" stroke-linecap="round" stroke-linejoin="round" stroke-miterlimit="10" x1="324.48" y1="199.551" x2="349.41" y2="172.974"/>
</g>
<g>
	
		<line fill="none" stroke="#7F4FD0" stroke-width="7" stroke-linecap="round" stroke-linejoin="round" stroke-miterlimit="10" x1="380.77" y1="581.096" x2="354.192" y2="556.169"/>
	
		<line fill="none" stroke="#7F4FD0" stroke-width="7" stroke-linecap="round" stroke-linejoin="round" stroke-miterlimit="10" x1="355.015" y1="581.927" x2="379.943" y2="555.351"/>
</g>
<g>
	
		<line fill="none" stroke="#7F4FD0" stroke-width="7" stroke-linecap="round" stroke-linejoin="round" stroke-miterlimit="10" x1="57.374" y1="794.73" x2="30.797" y2="769.804"/>
	
		<line fill="none" stroke="#7F4FD0" stroke-width="7" stroke-linecap="round" stroke-linejoin="round" stroke-miterlimit="10" x1="31.62" y1="795.563" x2="56.548" y2="768.985"/>
</g>
<g>
	
		<line fill="none" stroke="#7F4FD0" stroke-width="7" stroke-linecap="round" stroke-linejoin="round" stroke-miterlimit="10" x1="45.769" y1="162.343" x2="19.19" y2="137.417"/>
	
		<line fill="none" stroke="#7F4FD0" stroke-width="7" stroke-linecap="round" stroke-linejoin="round" stroke-miterlimit="10" x1="20.014" y1="163.174" x2="44.943" y2="136.597"/>
</g>
<g>
	
		<line fill="none" stroke="#7F4FD0" stroke-width="7" stroke-linecap="round" stroke-linejoin="round" stroke-miterlimit="10" x1="990.958" y1="198.068" x2="964.382" y2="173.143"/>
	
		<line fill="none" stroke="#7F4FD0" stroke-width="7" stroke-linecap="round" stroke-linejoin="round" stroke-miterlimit="10" x1="965.202" y1="198.899" x2="990.132" y2="172.322"/>
</g>
<g>
	
		<line fill="none" stroke="#7F4FD0" stroke-width="7" stroke-linecap="round" stroke-linejoin="round" stroke-miterlimit="10" x1="677.407" y1="333.646" x2="650.829" y2="308.719"/>
	
		<line fill="none" stroke="#7F4FD0" stroke-width="7" stroke-linecap="round" stroke-linejoin="round" stroke-miterlimit="10" x1="651.653" y1="334.477" x2="676.583" y2="307.899"/>
</g>
<g>
	
		<line fill="none" stroke="#7F4FD0" stroke-width="7" stroke-linecap="round" stroke-linejoin="round" stroke-miterlimit="10" x1="806.99" y1="629.551" x2="780.415" y2="604.625"/>
	
		<line fill="none" stroke="#7F4FD0" stroke-width="7" stroke-linecap="round" stroke-linejoin="round" stroke-miterlimit="10" x1="781.234" y1="630.381" x2="806.165" y2="603.804"/>
</g>
<g>
	
		<line fill="none" stroke="#7F4FD0" stroke-width="7" stroke-linecap="round" stroke-linejoin="round" stroke-miterlimit="10" x1="786.35" y1="870.596" x2="759.771" y2="845.67"/>
	
		<line fill="none" stroke="#7F4FD0" stroke-width="7" stroke-linecap="round" stroke-linejoin="round" stroke-miterlimit="10" x1="760.592" y1="871.426" x2="785.521" y2="844.849"/>
</g>
<polygon fill="none" stroke="#7F4FD0" stroke-width="7" stroke-linecap="round" stroke-linejoin="round" stroke-miterlimit="10" points="
	547.732,238.617 529.436,206.969 511.192,238.634 492.934,270.306 529.479,270.275 566.03,270.258 "/>
<polygon fill="none" stroke="#7F4FD0" stroke-width="7" stroke-linecap="round" stroke-linejoin="round" stroke-miterlimit="10" points="
	487.234,625.463 468.936,593.815 450.692,625.479 432.434,657.152 468.979,657.121 505.531,657.104 "/>
<polygon fill="none" stroke="#7F4FD0" stroke-width="7" stroke-linecap="round" stroke-linejoin="round" stroke-miterlimit="10" points="
	696.943,744.259 678.643,712.609 660.398,744.275 642.141,775.948 678.686,775.917 715.239,775.9 "/>
<polygon fill="none" stroke="#7F4FD0" stroke-width="7" stroke-linecap="round" stroke-linejoin="round" stroke-miterlimit="10" points="
	817.555,501.298 826.995,465.979 791.706,475.471 756.398,484.953 782.262,510.776 808.12,536.611 "/>
<polygon fill="none" stroke="#7F4FD0" stroke-width="7" stroke-linecap="round" stroke-linejoin="round" stroke-miterlimit="10" points="
	216.509,91.294 225.948,55.976 190.659,65.468 155.352,74.951 181.214,100.771 207.075,126.606 "/>
<polygon fill="none" stroke="#7F4FD0" stroke-width="7" stroke-linecap="round" stroke-linejoin="round" stroke-miterlimit="10" points="
	191.479,854.371 200.918,819.052 165.629,828.543 130.323,838.029 156.186,863.848 182.045,889.682 "/>
<polygon fill="none" stroke="#7F4FD0" stroke-width="7" stroke-linecap="round" stroke-linejoin="round" stroke-miterlimit="10" points="
	854.587,130.745 886.235,112.446 854.57,94.204 822.898,75.945 822.929,112.491 822.946,149.044 "/>
<polygon fill="none" stroke="#7F4FD0" stroke-width="7" stroke-linecap="round" stroke-linejoin="round" stroke-miterlimit="10" points="
	190.669,495.895 222.317,477.596 190.653,459.354 158.98,441.095 159.014,477.641 159.031,514.195 "/>
<path fill="none" stroke="#7F4FD0" stroke-width="7" stroke-linecap="round" stroke-linejoin="round" stroke-miterlimit="10" d="
	M609.502,436.051c0,15.315-12.416,27.729-27.729,27.729c-15.313,0-27.731-12.414-27.731-27.729
	c0-15.313,12.418-27.729,27.731-27.729C597.086,408.321,609.502,420.735,609.502,436.051z"/>
<circle fill="none" stroke="#7F4FD0" stroke-width="7" stroke-linecap="round" stroke-linejoin="round" stroke-miterlimit="10" cx="441.665" cy="126.606" r="27.73"/>
<circle fill="none" stroke="#7F4FD0" stroke-width="7" stroke-linecap="round" stroke-linejoin="round" stroke-miterlimit="10" cx="459.361" cy="944.99" r="27.73"/>
<path fill="none" stroke="#7F4FD0" stroke-width="7" stroke-linecap="round" stroke-linejoin="round" stroke-miterlimit="10" d="
	M561.256,903.548c0-15.313,12.419-27.728,27.73-27.728c15.313,0,27.729,12.412,27.729,27.728"/>
<path fill="none" stroke="#7F4FD0" stroke-width="7" stroke-linecap="round" stroke-linejoin="round" stroke-miterlimit="10" d="
	M339.935,477.644c0-15.313,12.417-27.729,27.73-27.729s27.729,12.414,27.729,27.729"/>
<path fill="none" stroke="#7F4FD0" stroke-width="7" stroke-linecap="round" stroke-linejoin="round" stroke-miterlimit="10" d="
	M48.203,252.502c0-15.315,12.361-27.729,27.604-27.729c15.244,0,27.604,12.414,27.604,27.729"/>
<path fill="none" stroke="#7F4FD0" stroke-width="7" stroke-linecap="round" stroke-linejoin="round" stroke-miterlimit="10" d="
	M747.165,297.911c-15.315,0-27.729-12.362-27.729-27.605c0-15.243,12.414-27.604,27.729-27.604"/>
<path fill="none" stroke="#7F4FD0" stroke-width="7" stroke-linecap="round" stroke-linejoin="round" stroke-miterlimit="10" d="
	M79.463,944.864c-15.315,0-27.729-12.36-27.729-27.605c0-15.243,12.414-27.601,27.729-27.601"/>
<path fill="none" stroke="#7F4FD0" stroke-width="7" stroke-linecap="round" stroke-linejoin="round" stroke-miterlimit="10" d="
	M377.019,62.978c-15.315,0-27.729-12.361-27.729-27.605c0-15.243,12.413-27.603,27.729-27.603"/>
<circle fill="none" stroke="#7F4FD0" stroke-width="7" stroke-linecap="round" stroke-linejoin="round" stroke-miterlimit="10" cx="65.6" cy="653.211" r="27.73"/>
<circle fill="none" stroke="#7F4FD0" stroke-width="7" stroke-linecap="round" stroke-linejoin="round" stroke-miterlimit="10" cx="920.7" cy="684.879" r="27.729"/>
<rect x="871.729" y="242.727" fill="none" stroke="#7F4FD0" stroke-width="7" stroke-linecap="round" stroke-linejoin="round" stroke-miterlimit="10" width="55.157" height="55.159"/>
<rect x="248.087" y="270.306" fill="none" stroke="#7F4FD0" stroke-width="7" stroke-linecap="round" stroke-linejoin="round" stroke-miterlimit="10" width="55.157" height="55.159"/>
<rect x="245.319" y="622.447" fill="none" stroke="#7F4FD0" stroke-width="7" stroke-linecap="round" stroke-linejoin="round" stroke-miterlimit="10" width="55.157" height="55.159"/>
<rect x="871.729" y="889.682" fill="none" stroke="#7F4FD0" stroke-width="7" stroke-linecap="round" stroke-linejoin="round" stroke-miterlimit="10" width="55.153" height="55.159"/>
<rect x="642.915" y="7.795" fill="none" stroke="#7F4FD0" stroke-width="7" stroke-linecap="round" stroke-linejoin="round" stroke-miterlimit="10" width="55.155" height="55.159"/>
<g>
	<path fill="none" stroke="#7F4FD0" stroke-width="7" stroke-linecap="round" stroke-linejoin="round" stroke-miterlimit="10" d="
		M563.659,568.641c-12.042,0-9.966-21.354-25.332-21.354"/>
	<path fill="none" stroke="#7F4FD0" stroke-width="7" stroke-linecap="round" stroke-linejoin="round" stroke-miterlimit="10" d="
		M614.319,568.641c-12.042,0-9.972-21.354-25.33-21.354"/>
	<path fill="none" stroke="#7F4FD0" stroke-width="7" stroke-linecap="round" stroke-linejoin="round" stroke-miterlimit="10" d="
		M563.659,568.641c12.041,0,9.965-21.354,25.33-21.354"/>
	<path fill="none" stroke="#7F4FD0" stroke-width="7" stroke-linecap="round" stroke-linejoin="round" stroke-miterlimit="10" d="
		M639.646,547.287"/>
	<path fill="none" stroke="#7F4FD0" stroke-width="7" stroke-linecap="round" stroke-linejoin="round" stroke-miterlimit="10" d="
		M614.319,568.641c12.034,0,9.964-21.354,25.327-21.354"/>
</g>
<g>
	<path fill="none" stroke="#7F4FD0" stroke-width="7" stroke-linecap="round" stroke-linejoin="round" stroke-miterlimit="10" d="
		M707.973,966.348c-12.042,0-9.965-21.354-25.332-21.354"/>
	<path fill="none" stroke="#7F4FD0" stroke-width="7" stroke-linecap="round" stroke-linejoin="round" stroke-miterlimit="10" d="
		M758.632,966.348c-12.041,0-9.964-21.354-25.329-21.354"/>
	<path fill="none" stroke="#7F4FD0" stroke-width="7" stroke-linecap="round" stroke-linejoin="round" stroke-miterlimit="10" d="
		M707.973,966.348c12.04,0,9.965-21.354,25.33-21.354"/>
	<path fill="none" stroke="#7F4FD0" stroke-width="7" stroke-linecap="round" stroke-linejoin="round" stroke-miterlimit="10" d="
		M783.959,944.994"/>
	<path fill="none" stroke="#7F4FD0" stroke-width="7" stroke-linecap="round" stroke-linejoin="round" stroke-miterlimit="10" d="
		M758.632,966.348c12.037-0.004,9.966-21.354,25.327-21.354"/>
</g>
<g>
	<path fill="none" stroke="#7F4FD0" stroke-width="7" stroke-linecap="round" stroke-linejoin="round" stroke-miterlimit="10" d="
		M777.051,392.979c-12.041,0-9.965-21.354-25.327-21.354"/>
	<path fill="none" stroke="#7F4FD0" stroke-width="7" stroke-linecap="round" stroke-linejoin="round" stroke-miterlimit="10" d="
		M827.71,392.979c-12.04,0-9.966-21.353-25.327-21.353"/>
	<path fill="none" stroke="#7F4FD0" stroke-width="7" stroke-linecap="round" stroke-linejoin="round" stroke-miterlimit="10" d="
		M777.051,392.979c12.042,0,9.969-21.353,25.332-21.353"/>
	<path fill="none" stroke="#7F4FD0" stroke-width="7" stroke-linecap="round" stroke-linejoin="round" stroke-miterlimit="10" d="
		M853.042,371.626"/>
	<path fill="none" stroke="#7F4FD0" stroke-width="7" stroke-linecap="round" stroke-linejoin="round" stroke-miterlimit="10" d="
		M827.71,392.979c12.041-0.002,9.966-21.354,25.332-21.353"/>
</g>
<g>
	<path fill="none" stroke="#7F4FD0" stroke-width="7" stroke-linecap="round" stroke-linejoin="round" stroke-miterlimit="10" d="
		M72.576,367.175c-12.042,0-9.966-21.354-25.33-21.354"/>
	<path fill="none" stroke="#7F4FD0" stroke-width="7" stroke-linecap="round" stroke-linejoin="round" stroke-miterlimit="10" d="
		M123.234,367.175c-12.042,0-9.965-21.354-25.328-21.354"/>
	<path fill="none" stroke="#7F4FD0" stroke-width="7" stroke-linecap="round" stroke-linejoin="round" stroke-miterlimit="10" d="
		M72.576,367.175c12.041,0,9.967-21.354,25.331-21.354"/>
	<path fill="none" stroke="#7F4FD0" stroke-width="7" stroke-linecap="round" stroke-linejoin="round" stroke-miterlimit="10" d="
		M148.564,345.822"/>
	<path fill="none" stroke="#7F4FD0" stroke-width="7" stroke-linecap="round" stroke-linejoin="round" stroke-miterlimit="10" d="
		M123.234,367.175c12.04-0.002,9.965-21.354,25.33-21.354"/>
</g>
<g>
	<path fill="none" stroke="#7F4FD0" stroke-width="7" stroke-linecap="round" stroke-linejoin="round" stroke-miterlimit="10" d="
		M567.852,81.305c0,12.042-21.354,9.965-21.354,25.33"/>
	<path fill="none" stroke="#7F4FD0" stroke-width="7" stroke-linecap="round" stroke-linejoin="round" stroke-miterlimit="10" d="
		M567.852,30.646c0,12.041-21.354,9.965-21.354,25.328"/>
	<path fill="none" stroke="#7F4FD0" stroke-width="7" stroke-linecap="round" stroke-linejoin="round" stroke-miterlimit="10" d="
		M567.852,81.305c0-12.041-21.354-9.967-21.354-25.331"/>
	<path fill="none" stroke="#7F4FD0" stroke-width="7" stroke-linecap="round" stroke-linejoin="round" stroke-miterlimit="10" d="
		M546.497,5.316"/>
	<path fill="none" stroke="#7F4FD0" stroke-width="7" stroke-linecap="round" stroke-linejoin="round" stroke-miterlimit="10" d="
		M567.852,30.646c0-12.04-21.354-9.966-21.354-25.33"/>
</g>
<g>
	<path fill="none" stroke="#7F4FD0" stroke-width="7" stroke-linecap="round" stroke-linejoin="round" stroke-miterlimit="10" d="
		M412.521,346.295c0,12.041-21.354,9.965-21.354,25.33"/>
	<path fill="none" stroke="#7F4FD0" stroke-width="7" stroke-linecap="round" stroke-linejoin="round" stroke-miterlimit="10" d="
		M412.521,295.635c0,12.042-21.354,9.965-21.354,25.328"/>
	<path fill="none" stroke="#7F4FD0" stroke-width="7" stroke-linecap="round" stroke-linejoin="round" stroke-miterlimit="10" d="
		M412.521,346.295c0-12.042-21.354-9.967-21.354-25.332"/>
	<path fill="none" stroke="#7F4FD0" stroke-width="7" stroke-linecap="round" stroke-linejoin="round" stroke-miterlimit="10" d="
		M391.169,270.306"/>
	<path fill="none" stroke="#7F4FD0" stroke-width="7" stroke-linecap="round" stroke-linejoin="round" stroke-miterlimit="10" d="
		M412.521,295.635c0-12.04-21.354-9.965-21.354-25.33"/>
</g>
<g>
	<path fill="none" stroke="#7F4FD0" stroke-width="7" stroke-linecap="round" stroke-linejoin="round" stroke-miterlimit="10" d="
		M833.574,769.606c0,12.041-21.354,9.966-21.354,25.331"/>
	<path fill="none" stroke="#7F4FD0" stroke-width="7" stroke-linecap="round" stroke-linejoin="round" stroke-miterlimit="10" d="
		M833.574,718.947c0,12.042-21.354,9.966-21.354,25.328"/>
	<path fill="none" stroke="#7F4FD0" stroke-width="7" stroke-linecap="round" stroke-linejoin="round" stroke-miterlimit="10" d="
		M833.574,769.606c0-12.041-21.354-9.971-21.354-25.331"/>
	<path fill="none" stroke="#7F4FD0" stroke-width="7" stroke-linecap="round" stroke-linejoin="round" stroke-miterlimit="10" d="
		M812.222,693.619"/>
	<path fill="none" stroke="#7F4FD0" stroke-width="7" stroke-linecap="round" stroke-linejoin="round" stroke-miterlimit="10" d="
		M833.574,718.947c0-12.038-21.354-9.965-21.354-25.328"/>
</g>
<g>
	<path fill="none" stroke="#7F4FD0" stroke-width="7" stroke-linecap="round" stroke-linejoin="round" stroke-miterlimit="10" d="
		M311.153,809.528c0,12.042-21.353,9.966-21.353,25.329"/>
	<path fill="none" stroke="#7F4FD0" stroke-width="7" stroke-linecap="round" stroke-linejoin="round" stroke-miterlimit="10" d="
		M311.153,758.869c0,12.042-21.353,9.965-21.353,25.328"/>
	<path fill="none" stroke="#7F4FD0" stroke-width="7" stroke-linecap="round" stroke-linejoin="round" stroke-miterlimit="10" d="
		M311.153,809.528c0-12.041-21.353-9.974-21.353-25.331"/>
	<path fill="none" stroke="#7F4FD0" stroke-width="7" stroke-linecap="round" stroke-linejoin="round" stroke-miterlimit="10" d="
		M289.801,733.539"/>
	<path fill="none" stroke="#7F4FD0" stroke-width="7" stroke-linecap="round" stroke-linejoin="round" stroke-miterlimit="10" d="
		M311.153,758.869c0-12.04-21.353-9.966-21.353-25.33"/>
</g>
<line fill="none" stroke="#7F4FD0" stroke-width="7" stroke-linecap="round" stroke-linejoin="round" stroke-miterlimit="10" x1="624.357" y1="625.482" x2="686.862" y2="625.482"/>
<line fill="none" stroke="#7F4FD0" stroke-width="7" stroke-linecap="round" stroke-linejoin="round" stroke-miterlimit="10" x1="9.894" y1="444.871" x2="72.396" y2="444.871"/>
<line fill="none" stroke="#7F4FD0" stroke-width="7" stroke-linecap="round" stroke-linejoin="round" stroke-miterlimit="10" x1="629.031" y1="154.335" x2="691.534" y2="154.335"/>
<line fill="none" stroke="#7F4FD0" stroke-width="7" stroke-linecap="round" stroke-linejoin="round" stroke-miterlimit="10" x1="875.406" y1="13.276" x2="937.909" y2="13.276"/>
<line fill="none" stroke="#7F4FD0" stroke-width="7" stroke-linecap="round" stroke-linejoin="round" stroke-miterlimit="10" x1="259.074" y1="944.864" x2="321.576" y2="944.864"/>
<line fill="none" stroke="#7F4FD0" stroke-width="7" stroke-linecap="round" stroke-linejoin="round" stroke-miterlimit="10" x1="419.566" y1="824.112" x2="463.763" y2="779.917"/>
<line fill="none" stroke="#7F4FD0" stroke-width="7" stroke-linecap="round" stroke-linejoin="round" stroke-miterlimit="10" x1="53.708" y1="57.473" x2="97.904" y2="13.276"/>
<line fill="none" stroke="#7F4FD0" stroke-width="7" stroke-linecap="round" stroke-linejoin="round" stroke-miterlimit="10" x1="906.656" y1="510.554" x2="950.854" y2="466.358"/>
<path fill="none" stroke="#7F4FD0" stroke-width="7" stroke-linecap="round" stroke-linejoin="round" stroke-miterlimit="10" d="
	M578.979,773.463c-5.104,3.21-11.852,1.678-15.058-3.431c-3.217-5.108-1.684-11.845,3.423-15.063
	c5.104-3.206,11.852-1.674,15.053,3.437C585.609,763.508,584.072,770.254,578.979,773.463z"/>
<path fill="none" stroke="#7F4FD0" stroke-width="7" stroke-linecap="round" stroke-linejoin="round" stroke-miterlimit="10" d="
	M492.911,473.021c-5.108,3.21-11.849,1.678-15.058-3.436c-3.218-5.104-1.685-11.844,3.425-15.055
	c5.101-3.208,11.848-1.674,15.056,3.431C499.547,463.069,498.008,469.813,492.911,473.021z"/>
<path fill="none" stroke="#7F4FD0" stroke-width="7" stroke-linecap="round" stroke-linejoin="round" stroke-miterlimit="10" d="
	M99.288,565.414c-5.108,3.209-11.849,1.678-15.057-3.431c-3.214-5.109-1.681-11.85,3.424-15.063
	c5.101-3.206,11.847-1.675,15.055,3.437C105.921,555.458,104.384,562.205,99.288,565.414z"/>
<path fill="none" stroke="#7F4FD0" stroke-width="7" stroke-linecap="round" stroke-linejoin="round" stroke-miterlimit="10" d="
	M211.199,221.641c-5.108,3.209-11.849,1.678-15.056-3.431c-3.215-5.106-1.682-11.844,3.423-15.055
	c5.101-3.208,11.847-1.674,15.056,3.43C217.833,211.688,216.295,218.432,211.199,221.641z"/>
<path fill="none" stroke="#7F4FD0" stroke-width="7" stroke-linecap="round" stroke-linejoin="round" stroke-miterlimit="10" d="
	M811.982,216.208c-5.106,3.21-11.851,1.678-15.061-3.43c-3.213-5.107-1.683-11.844,3.424-15.056
	c5.104-3.208,11.853-1.673,15.062,3.431C818.62,206.256,817.081,213,811.982,216.208z"/>
<path fill="none" stroke="#7F4FD0" stroke-width="7" stroke-linecap="round" stroke-linejoin="round" stroke-miterlimit="10" d="
	M966.276,605.333c-5.106,3.209-11.852,1.677-15.062-3.432c-3.211-5.109-1.68-11.85,3.425-15.062
	c5.104-3.207,11.852-1.675,15.061,3.435C972.913,595.377,971.376,602.123,966.276,605.333z"/>
<g>
	
		<line fill="none" stroke="#7F4FD0" stroke-width="7" stroke-linecap="round" stroke-linejoin="round" stroke-miterlimit="10" x1="1203.891" y1="657.473" x2="1178.963" y2="684.05"/>
	
		<line fill="none" stroke="#7F4FD0" stroke-width="7" stroke-linecap="round" stroke-linejoin="round" stroke-miterlimit="10" x1="1204.72" y1="683.229" x2="1178.143" y2="658.298"/>
</g>
<g>
	
		<line fill="none" stroke="#7F4FD0" stroke-width="7" stroke-linecap="round" stroke-linejoin="round" stroke-miterlimit="10" x1="1586.266" y1="626.938" x2="1561.338" y2="653.516"/>
	
		<line fill="none" stroke="#7F4FD0" stroke-width="7" stroke-linecap="round" stroke-linejoin="round" stroke-miterlimit="10" x1="1587.096" y1="652.693" x2="1560.52" y2="627.765"/>
</g>
<g>
	
		<line fill="none" stroke="#7F4FD0" stroke-width="7" stroke-linecap="round" stroke-linejoin="round" stroke-miterlimit="10" x1="1799.898" y1="937.617" x2="1774.973" y2="964.193"/>
	
		<line fill="none" stroke="#7F4FD0" stroke-width="7" stroke-linecap="round" stroke-linejoin="round" stroke-miterlimit="10" x1="1800.73" y1="963.371" x2="1774.154" y2="938.443"/>
</g>
<g>
	
		<line fill="none" stroke="#7F4FD0" stroke-width="7" stroke-linecap="round" stroke-linejoin="round" stroke-miterlimit="10" x1="1167.512" y1="949.223" x2="1142.586" y2="975.801"/>
	
		<line fill="none" stroke="#7F4FD0" stroke-width="7" stroke-linecap="round" stroke-linejoin="round" stroke-miterlimit="10" x1="1168.343" y1="974.979" x2="1141.766" y2="950.048"/>
</g>
<g>
	
		<line fill="none" stroke="#7F4FD0" stroke-width="7" stroke-linecap="round" stroke-linejoin="round" stroke-miterlimit="10" x1="1203.236" y1="16.75" x2="1178.313" y2="43.326"/>
	
		<line fill="none" stroke="#7F4FD0" stroke-width="7" stroke-linecap="round" stroke-linejoin="round" stroke-miterlimit="10" x1="1204.068" y1="42.506" x2="1177.491" y2="17.576"/>
</g>
<g>
	
		<line fill="none" stroke="#7F4FD0" stroke-width="7" stroke-linecap="round" stroke-linejoin="round" stroke-miterlimit="10" x1="1338.814" y1="330.301" x2="1313.888" y2="356.879"/>
	
		<line fill="none" stroke="#7F4FD0" stroke-width="7" stroke-linecap="round" stroke-linejoin="round" stroke-miterlimit="10" x1="1339.646" y1="356.055" x2="1313.068" y2="331.125"/>
</g>
<g>
	
		<line fill="none" stroke="#7F4FD0" stroke-width="7" stroke-linecap="round" stroke-linejoin="round" stroke-miterlimit="10" x1="1634.72" y1="200.718" x2="1609.794" y2="227.293"/>
	
		<line fill="none" stroke="#7F4FD0" stroke-width="7" stroke-linecap="round" stroke-linejoin="round" stroke-miterlimit="10" x1="1635.55" y1="226.474" x2="1608.973" y2="201.543"/>
</g>
<g>
	
		<line fill="none" stroke="#7F4FD0" stroke-width="7" stroke-linecap="round" stroke-linejoin="round" stroke-miterlimit="10" x1="1875.766" y1="221.358" x2="1850.839" y2="247.936"/>
	
		<line fill="none" stroke="#7F4FD0" stroke-width="7" stroke-linecap="round" stroke-linejoin="round" stroke-miterlimit="10" x1="1876.595" y1="247.116" x2="1850.018" y2="222.186"/>
</g>
<polygon fill="none" stroke="#7F4FD0" stroke-width="7" stroke-linecap="round" stroke-linejoin="round" stroke-miterlimit="10" points="
	1243.786,459.975 1212.138,478.273 1243.803,496.516 1275.475,514.774 1275.443,478.229 1275.427,441.678 "/>
<polygon fill="none" stroke="#7F4FD0" stroke-width="7" stroke-linecap="round" stroke-linejoin="round" stroke-miterlimit="10" points="
	1630.632,520.474 1598.984,538.773 1630.646,557.016 1662.321,575.274 1662.29,538.729 1662.271,502.177 "/>
<polygon fill="none" stroke="#7F4FD0" stroke-width="7" stroke-linecap="round" stroke-linejoin="round" stroke-miterlimit="10" points="
	1749.428,310.765 1717.777,329.066 1749.443,347.309 1781.117,365.567 1781.086,329.022 1781.068,292.469 "/>
<polygon fill="none" stroke="#7F4FD0" stroke-width="7" stroke-linecap="round" stroke-linejoin="round" stroke-miterlimit="10" points="
	1506.467,190.153 1471.146,180.713 1480.641,216.002 1490.122,251.309 1515.945,225.446 1541.78,199.588 "/>
<polygon fill="none" stroke="#7F4FD0" stroke-width="7" stroke-linecap="round" stroke-linejoin="round" stroke-miterlimit="10" points="
	1096.463,791.199 1061.145,781.76 1070.637,817.049 1080.12,852.356 1105.939,826.494 1131.775,800.633 "/>
<polygon fill="none" stroke="#7F4FD0" stroke-width="7" stroke-linecap="round" stroke-linejoin="round" stroke-miterlimit="10" points="
	1859.54,816.229 1824.221,806.789 1833.712,842.078 1843.198,877.385 1869.018,851.521 1894.852,825.662 "/>
<polygon fill="none" stroke="#7F4FD0" stroke-width="7" stroke-linecap="round" stroke-linejoin="round" stroke-miterlimit="10" points="
	1135.914,153.121 1117.615,121.473 1099.373,153.138 1081.113,184.809 1117.66,184.779 1154.213,184.762 "/>
<polygon fill="none" stroke="#7F4FD0" stroke-width="7" stroke-linecap="round" stroke-linejoin="round" stroke-miterlimit="10" points="
	1501.063,817.039 1482.766,785.391 1464.521,817.055 1446.264,848.729 1482.811,848.694 1519.364,848.678 "/>
<path fill="none" stroke="#7F4FD0" stroke-width="7" stroke-linecap="round" stroke-linejoin="round" stroke-miterlimit="10" d="
	M1441.22,398.206c15.315,0,27.729,12.416,27.729,27.729c0,15.313-12.414,27.731-27.729,27.731
	c-15.313,0-27.729-12.418-27.729-27.731C1413.49,410.622,1425.904,398.206,1441.22,398.206z"/>
<circle fill="none" stroke="#7F4FD0" stroke-width="7" stroke-linecap="round" stroke-linejoin="round" stroke-miterlimit="10" cx="1131.775" cy="566.043" r="27.73"/>
<circle fill="none" stroke="#7F4FD0" stroke-width="7" stroke-linecap="round" stroke-linejoin="round" stroke-miterlimit="10" cx="1950.159" cy="548.347" r="27.73"/>
<path fill="none" stroke="#7F4FD0" stroke-width="7" stroke-linecap="round" stroke-linejoin="round" stroke-miterlimit="10" d="
	M1908.717,446.452c-15.313,0-27.728-12.419-27.728-27.73c0-15.313,12.411-27.729,27.728-27.729"/>
<path fill="none" stroke="#7F4FD0" stroke-width="7" stroke-linecap="round" stroke-linejoin="round" stroke-miterlimit="10" d="
	M1482.813,667.773c-15.313,0-27.729-12.417-27.729-27.73c0-15.313,12.414-27.729,27.729-27.729"/>
<path fill="none" stroke="#7F4FD0" stroke-width="7" stroke-linecap="round" stroke-linejoin="round" stroke-miterlimit="10" d="
	M1257.671,946.789c-15.313,0-27.729-12.361-27.729-27.604c0-15.239,12.413-27.604,27.729-27.604"/>
<path fill="none" stroke="#7F4FD0" stroke-width="7" stroke-linecap="round" stroke-linejoin="round" stroke-miterlimit="10" d="
	M1303.08,260.543c0,15.315-12.362,27.73-27.605,27.73c-15.237,0-27.604-12.415-27.604-27.73"/>
<path fill="none" stroke="#7F4FD0" stroke-width="7" stroke-linecap="round" stroke-linejoin="round" stroke-miterlimit="10" d="
	M1950.033,915.527c0,15.313-12.36,27.729-27.605,27.729c-15.242,0-27.601-12.414-27.601-27.729"/>
<path fill="none" stroke="#7F4FD0" stroke-width="7" stroke-linecap="round" stroke-linejoin="round" stroke-miterlimit="10" d="
	M1068.146,630.689c0,15.313-12.36,27.729-27.604,27.729c-15.243,0-27.603-12.413-27.603-27.729"/>
<circle fill="none" stroke="#7F4FD0" stroke-width="7" stroke-linecap="round" stroke-linejoin="round" stroke-miterlimit="10" cx="1658.38" cy="929.392" r="27.73"/>
<circle fill="none" stroke="#7F4FD0" stroke-width="7" stroke-linecap="round" stroke-linejoin="round" stroke-miterlimit="10" cx="1690.048" cy="87.008" r="27.729"/>
<rect x="1247.896" y="80.822" fill="none" stroke="#7F4FD0" stroke-width="7" stroke-linecap="round" stroke-linejoin="round" stroke-miterlimit="10" width="55.153" height="55.158"/>
<rect x="1275.475" y="704.463" fill="none" stroke="#7F4FD0" stroke-width="7" stroke-linecap="round" stroke-linejoin="round" stroke-miterlimit="10" width="55.159" height="55.158"/>
<rect x="1627.616" y="707.231" fill="none" stroke="#7F4FD0" stroke-width="7" stroke-linecap="round" stroke-linejoin="round" stroke-miterlimit="10" width="55.159" height="55.152"/>
<rect x="1894.852" y="80.826" fill="none" stroke="#7F4FD0" stroke-width="7" stroke-linecap="round" stroke-linejoin="round" stroke-miterlimit="10" width="55.158" height="55.154"/>
<rect x="1012.964" y="309.638" fill="none" stroke="#7F4FD0" stroke-width="7" stroke-linecap="round" stroke-linejoin="round" stroke-miterlimit="10" width="55.159" height="55.155"/>
<g>
	<path fill="none" stroke="#7F4FD0" stroke-width="7" stroke-linecap="round" stroke-linejoin="round" stroke-miterlimit="10" d="
		M1573.811,444.049c0,12.042-21.354,9.966-21.354,25.332"/>
	<path fill="none" stroke="#7F4FD0" stroke-width="7" stroke-linecap="round" stroke-linejoin="round" stroke-miterlimit="10" d="
		M1573.811,393.389c0,12.042-21.354,9.972-21.354,25.33"/>
	<path fill="none" stroke="#7F4FD0" stroke-width="7" stroke-linecap="round" stroke-linejoin="round" stroke-miterlimit="10" d="
		M1573.811,444.049c0-12.041-21.354-9.965-21.354-25.33"/>
	<path fill="none" stroke="#7F4FD0" stroke-width="7" stroke-linecap="round" stroke-linejoin="round" stroke-miterlimit="10" d="
		M1552.456,368.063"/>
	<path fill="none" stroke="#7F4FD0" stroke-width="7" stroke-linecap="round" stroke-linejoin="round" stroke-miterlimit="10" d="
		M1573.811,393.389c0-12.035-21.354-9.964-21.354-25.322"/>
</g>
<g>
	<path fill="none" stroke="#7F4FD0" stroke-width="7" stroke-linecap="round" stroke-linejoin="round" stroke-miterlimit="10" d="
		M1971.518,299.735c0,12.042-21.354,9.965-21.354,25.333"/>
	<path fill="none" stroke="#7F4FD0" stroke-width="7" stroke-linecap="round" stroke-linejoin="round" stroke-miterlimit="10" d="
		M1971.518,249.076c0,12.041-21.354,9.964-21.354,25.329"/>
	<path fill="none" stroke="#7F4FD0" stroke-width="7" stroke-linecap="round" stroke-linejoin="round" stroke-miterlimit="10" d="
		M1971.518,299.735c0-12.04-21.354-9.965-21.354-25.33"/>
	<path fill="none" stroke="#7F4FD0" stroke-width="7" stroke-linecap="round" stroke-linejoin="round" stroke-miterlimit="10" d="
		M1950.163,223.749"/>
	<path fill="none" stroke="#7F4FD0" stroke-width="7" stroke-linecap="round" stroke-linejoin="round" stroke-miterlimit="10" d="
		M1971.518,249.076c-0.005-12.037-21.354-9.966-21.354-25.327"/>
</g>
<g>
	<path fill="none" stroke="#7F4FD0" stroke-width="7" stroke-linecap="round" stroke-linejoin="round" stroke-miterlimit="10" d="
		M1398.148,230.657c0,12.041-21.354,9.965-21.354,25.327"/>
	<path fill="none" stroke="#7F4FD0" stroke-width="7" stroke-linecap="round" stroke-linejoin="round" stroke-miterlimit="10" d="
		M1398.148,179.998c0,12.04-21.354,9.966-21.354,25.327"/>
	<path fill="none" stroke="#7F4FD0" stroke-width="7" stroke-linecap="round" stroke-linejoin="round" stroke-miterlimit="10" d="
		M1398.148,230.657c0-12.042-21.354-9.969-21.354-25.332"/>
	<path fill="none" stroke="#7F4FD0" stroke-width="7" stroke-linecap="round" stroke-linejoin="round" stroke-miterlimit="10" d="
		M1376.795,154.666"/>
	<path fill="none" stroke="#7F4FD0" stroke-width="7" stroke-linecap="round" stroke-linejoin="round" stroke-miterlimit="10" d="
		M1398.148,179.998c-0.002-12.041-21.354-9.966-21.354-25.332"/>
</g>
<g>
	<path fill="none" stroke="#7F4FD0" stroke-width="7" stroke-linecap="round" stroke-linejoin="round" stroke-miterlimit="10" d="
		M1372.344,922.416c0,12.041-21.354,9.966-21.354,25.33"/>
	<path fill="none" stroke="#7F4FD0" stroke-width="7" stroke-linecap="round" stroke-linejoin="round" stroke-miterlimit="10" d="
		M1372.344,871.757c0,12.042-21.354,9.965-21.354,25.327"/>
	<path fill="none" stroke="#7F4FD0" stroke-width="7" stroke-linecap="round" stroke-linejoin="round" stroke-miterlimit="10" d="
		M1372.344,922.416c0-12.041-21.354-9.967-21.354-25.332"/>
	<path fill="none" stroke="#7F4FD0" stroke-width="7" stroke-linecap="round" stroke-linejoin="round" stroke-miterlimit="10" d="
		M1350.991,846.427"/>
	<path fill="none" stroke="#7F4FD0" stroke-width="7" stroke-linecap="round" stroke-linejoin="round" stroke-miterlimit="10" d="
		M1372.344,871.757c-0.002-12.04-21.354-9.966-21.354-25.33"/>
</g>
<g>
	<path fill="none" stroke="#7F4FD0" stroke-width="7" stroke-linecap="round" stroke-linejoin="round" stroke-miterlimit="10" d="
		M1086.475,439.856c12.041,0,9.965,21.354,25.329,21.354"/>
	<path fill="none" stroke="#7F4FD0" stroke-width="7" stroke-linecap="round" stroke-linejoin="round" stroke-miterlimit="10" d="
		M1035.814,439.856c12.041,0,9.965,21.354,25.323,21.354"/>
	<path fill="none" stroke="#7F4FD0" stroke-width="7" stroke-linecap="round" stroke-linejoin="round" stroke-miterlimit="10" d="
		M1086.475,439.856c-12.041,0-9.968,21.354-25.332,21.354"/>
	<path fill="none" stroke="#7F4FD0" stroke-width="7" stroke-linecap="round" stroke-linejoin="round" stroke-miterlimit="10" d="
		M1010.484,461.211"/>
	<path fill="none" stroke="#7F4FD0" stroke-width="7" stroke-linecap="round" stroke-linejoin="round" stroke-miterlimit="10" d="
		M1035.814,439.856c-12.039,0-9.97,21.354-25.33,21.354"/>
</g>
<g>
	<path fill="none" stroke="#7F4FD0" stroke-width="7" stroke-linecap="round" stroke-linejoin="round" stroke-miterlimit="10" d="
		M1351.464,595.188c12.041,0,9.965,21.354,25.33,21.354"/>
	<path fill="none" stroke="#7F4FD0" stroke-width="7" stroke-linecap="round" stroke-linejoin="round" stroke-miterlimit="10" d="
		M1300.804,595.188c12.042,0,9.966,21.354,25.328,21.354"/>
	<path fill="none" stroke="#7F4FD0" stroke-width="7" stroke-linecap="round" stroke-linejoin="round" stroke-miterlimit="10" d="
		M1351.464,595.188c-12.042,0-9.967,21.354-25.332,21.354"/>
	<path fill="none" stroke="#7F4FD0" stroke-width="7" stroke-linecap="round" stroke-linejoin="round" stroke-miterlimit="10" d="
		M1275.475,616.539"/>
	<path fill="none" stroke="#7F4FD0" stroke-width="7" stroke-linecap="round" stroke-linejoin="round" stroke-miterlimit="10" d="
		M1300.804,595.188c-12.04,0-9.965,21.354-25.329,21.354"/>
</g>
<g>
	<path fill="none" stroke="#7F4FD0" stroke-width="7" stroke-linecap="round" stroke-linejoin="round" stroke-miterlimit="10" d="
		M1774.775,174.134c12.041,0,9.966,21.353,25.33,21.353"/>
	<path fill="none" stroke="#7F4FD0" stroke-width="7" stroke-linecap="round" stroke-linejoin="round" stroke-miterlimit="10" d="
		M1724.116,174.134c12.042,0,9.966,21.353,25.327,21.353"/>
	<path fill="none" stroke="#7F4FD0" stroke-width="7" stroke-linecap="round" stroke-linejoin="round" stroke-miterlimit="10" d="
		M1774.775,174.134c-12.041,0-9.967,21.353-25.332,21.353"/>
	<path fill="none" stroke="#7F4FD0" stroke-width="7" stroke-linecap="round" stroke-linejoin="round" stroke-miterlimit="10" d="
		M1698.788,195.486"/>
	<path fill="none" stroke="#7F4FD0" stroke-width="7" stroke-linecap="round" stroke-linejoin="round" stroke-miterlimit="10" d="
		M1724.116,174.134c-12.038,0-9.966,21.353-25.328,21.353"/>
</g>
<g>
	<path fill="none" stroke="#7F4FD0" stroke-width="7" stroke-linecap="round" stroke-linejoin="round" stroke-miterlimit="10" d="
		M1814.697,696.555c12.042,0,9.966,21.354,25.328,21.354"/>
	<path fill="none" stroke="#7F4FD0" stroke-width="7" stroke-linecap="round" stroke-linejoin="round" stroke-miterlimit="10" d="
		M1764.038,696.555c12.042,0,9.965,21.354,25.328,21.354"/>
	<path fill="none" stroke="#7F4FD0" stroke-width="7" stroke-linecap="round" stroke-linejoin="round" stroke-miterlimit="10" d="
		M1814.697,696.555c-12.041,0-9.969,21.354-25.331,21.354"/>
	<path fill="none" stroke="#7F4FD0" stroke-width="7" stroke-linecap="round" stroke-linejoin="round" stroke-miterlimit="10" d="
		M1738.708,717.907"/>
	<path fill="none" stroke="#7F4FD0" stroke-width="7" stroke-linecap="round" stroke-linejoin="round" stroke-miterlimit="10" d="
		M1764.038,696.555c-12.04,0-9.966,21.354-25.33,21.354"/>
</g>
<line fill="none" stroke="#7F4FD0" stroke-width="7" stroke-linecap="round" stroke-linejoin="round" stroke-miterlimit="10" x1="1630.65" y1="383.351" x2="1630.65" y2="320.846"/>
<line fill="none" stroke="#7F4FD0" stroke-width="7" stroke-linecap="round" stroke-linejoin="round" stroke-miterlimit="10" x1="1450.04" y1="985.098" x2="1450.04" y2="922.595"/>
<line fill="none" stroke="#7F4FD0" stroke-width="7" stroke-linecap="round" stroke-linejoin="round" stroke-miterlimit="10" x1="1159.504" y1="378.677" x2="1159.504" y2="316.174"/>
<line fill="none" stroke="#7F4FD0" stroke-width="7" stroke-linecap="round" stroke-linejoin="round" stroke-miterlimit="10" x1="1018.445" y1="132.302" x2="1018.445" y2="69.799"/>
<line fill="none" stroke="#7F4FD0" stroke-width="7" stroke-linecap="round" stroke-linejoin="round" stroke-miterlimit="10" x1="1950.033" y1="748.635" x2="1950.033" y2="686.132"/>
<line fill="none" stroke="#7F4FD0" stroke-width="7" stroke-linecap="round" stroke-linejoin="round" stroke-miterlimit="10" x1="1829.281" y1="588.142" x2="1785.086" y2="543.945"/>
<line fill="none" stroke="#7F4FD0" stroke-width="7" stroke-linecap="round" stroke-linejoin="round" stroke-miterlimit="10" x1="1062.643" y1="941.283" x2="1018.445" y2="897.087"/>
<line fill="none" stroke="#7F4FD0" stroke-width="7" stroke-linecap="round" stroke-linejoin="round" stroke-miterlimit="10" x1="1515.723" y1="101.052" x2="1471.527" y2="56.855"/>
<path fill="none" stroke="#7F4FD0" stroke-width="7" stroke-linecap="round" stroke-linejoin="round" stroke-miterlimit="10" d="
	M1778.632,428.73c3.21,5.104,1.679,11.851-3.431,15.057c-5.108,3.217-11.846,1.684-15.059-3.423
	c-3.205-5.104-1.678-11.852,3.433-15.058C1768.677,422.099,1775.423,423.636,1778.632,428.73z"/>
<path fill="none" stroke="#7F4FD0" stroke-width="7" stroke-linecap="round" stroke-linejoin="round" stroke-miterlimit="10" d="
	M1478.189,514.797c3.211,5.108,1.679,11.85-3.435,15.057c-5.104,3.219-11.844,1.686-15.055-3.424
	c-3.208-5.101-1.679-11.848,3.431-15.056C1468.238,508.161,1474.98,509.7,1478.189,514.797z"/>
<path fill="none" stroke="#7F4FD0" stroke-width="7" stroke-linecap="round" stroke-linejoin="round" stroke-miterlimit="10" d="
	M1570.583,895.703c3.209,5.104,1.678,11.85-3.431,15.058c-5.109,3.214-11.846,1.686-15.063-3.424
	c-3.206-5.101-1.675-11.847,3.436-15.056C1560.627,889.07,1567.374,890.607,1570.583,895.703z"/>
<path fill="none" stroke="#7F4FD0" stroke-width="7" stroke-linecap="round" stroke-linejoin="round" stroke-miterlimit="10" d="
	M1226.811,796.51c3.209,5.107,1.683,11.854-3.432,15.061c-5.104,3.215-11.844,1.683-15.055-3.428
	c-3.208-5.102-1.674-11.848,3.43-15.057C1216.857,789.875,1223.602,791.412,1226.811,796.51z"/>
<path fill="none" stroke="#7F4FD0" stroke-width="7" stroke-linecap="round" stroke-linejoin="round" stroke-miterlimit="10" d="
	M1221.377,195.726c3.21,5.106,1.678,11.846-3.43,15.056c-5.107,3.213-11.849,1.683-15.062-3.424
	c-3.207-5.102-1.673-11.848,3.437-15.057C1211.425,189.088,1218.169,190.627,1221.377,195.726z"/>
<path fill="none" stroke="#7F4FD0" stroke-width="7" stroke-linecap="round" stroke-linejoin="round" stroke-miterlimit="10" d="
	M1610.502,41.432c3.209,5.106,1.677,11.847-3.432,15.057c-5.109,3.211-11.846,1.68-15.062-3.424
	c-3.207-5.104-1.675-11.848,3.435-15.057C1600.546,34.795,1607.292,36.332,1610.502,41.432z"/>
</svg>
